<?xml version="1.0" encoding="UTF-8" standalone="no"?><!DOCTYPE svg PUBLIC "-//W3C//DTD SVG 1.1//EN" "http://www.w3.org/Graphics/SVG/1.1/DTD/svg11.dtd"><svg width="100%" height="100%" viewBox="0 0 2083 2083" version="1.1" xmlns="http://www.w3.org/2000/svg" xmlns:xlink="http://www.w3.org/1999/xlink" xml:space="preserve" xmlns:serif="http://www.serif.com/" style="fill-rule:evenodd;clip-rule:evenodd;stroke-linecap:round;stroke-linejoin:round;stroke-miterlimit:1.5;"><path d="M283.588,1756.09c-394.413,-418.285 -375.032,-1078.09 43.252,-1472.5c418.284,-394.413 1078.09,-375.032 1472.5,43.252c394.413,418.284 375.032,1078.09 -43.252,1472.5c-418.285,394.413 -1078.09,375.032 -1472.5,-43.252Z" style="fill:#c1e0e5;"/><path d="M1774.04,1780.91c-182.322,180.375 -431.128,294.258 -707.505,300.839c-250.526,5.964 -482.62,-77.218 -665.883,-220.564c81.496,-376.337 351.498,-655.535 678.182,-663.313c312.678,-7.444 585.324,235.948 695.206,583.038Z" style="fill:#af552e;"/><path d="M1038.38,446.35c248.292,-5.911 454.672,190.87 460.584,439.162c5.911,248.291 -190.87,454.672 -439.162,460.583c-248.291,5.912 -454.672,-190.87 -460.583,-439.161c-5.912,-248.292 190.87,-454.672 439.161,-460.584Z" style="fill:#af552e;"/><path d="M912.433,786.908c-25.24,28.077 -68.161,30.709 -95.788,5.874c-27.626,-24.835 -29.564,-67.792 -4.325,-95.87c25.24,-28.077 68.16,-30.709 95.787,-5.874c27.627,24.835 29.565,67.793 4.326,95.87Z"/><path d="M1021.28,765.801c73.352,-0.985 133.982,78.462 135.31,177.304c1.328,98.842 -57.146,179.889 -130.498,180.875c-73.352,0.985 -133.982,-78.462 -135.31,-177.304c-1.328,-98.842 57.146,-179.889 130.498,-180.875Z" style="fill:#a4745f;"/><path d="M1022.8,864.917c46.595,-0.626 84.822,28.411 85.31,64.803c0.489,36.393 -36.943,66.447 -83.538,67.073c-46.595,0.626 -84.821,-28.412 -85.31,-64.804c-0.489,-36.392 36.943,-66.446 83.538,-67.072Z" style="fill:#6f3820;"/><path d="M796.365,606.01c-48.786,32.034 -113.892,19.209 -145.299,-28.623c-31.407,-47.831 -17.298,-112.671 31.488,-144.705c48.786,-32.034 113.893,-19.208 145.299,28.623c31.407,47.831 17.298,112.672 -31.488,144.705Z" style="fill:#af552e;"/><path d="M1369.88,606.01c-48.786,32.034 -113.893,19.209 -145.3,-28.623c-31.406,-47.831 -17.297,-112.671 31.489,-144.705c48.786,-32.034 113.892,-19.208 145.299,28.623c31.407,47.831 17.298,112.672 -31.488,144.705Z" style="fill:#af552e;"/><path d="M1231.96,786.908c-25.239,28.077 -68.16,30.709 -95.787,5.874c-27.627,-24.835 -29.565,-67.792 -4.325,-95.87c25.239,-28.077 68.16,-30.709 95.787,-5.874c27.627,24.835 29.565,67.793 4.325,95.87Z"/><g transform="matrix(200,0,0,200,1675,955.561)"></g><text x="213.773px" y="955.561px" style="font-family:'ArialMT', 'Arial', sans-serif;font-size:200px;">fuck <tspan x="663.773px 813.773px 963.773px 1113.77px 1263.77px 1413.77px 1563.77px " y="955.561px 955.561px 955.561px 955.561px 955.561px 955.561px 955.561px ">      u</tspan></text><path d="M969.667,934.975c3.581,0 3.569,-1.482 1.177,-3.923c-1.391,-1.418 -6.144,-5.032 -4.665,-3.707c4.707,4.215 10.614,6.848 16.607,8.31c1.253,0.306 3.557,-1.193 3.829,-1.061c1.898,0.916 2.972,3.57 5.176,4.045c15.158,3.267 32.265,-3.136 47.645,-4.567c4.745,-0.442 9.705,3.57 14.627,2.559c2.568,-0.528 2.148,-4.948 4.894,-5.273c5.018,-0.593 8.463,12.521 11.924,6.856c0.749,-1.225 -0.024,2.887 -0.288,4.298c-0.209,1.12 -1.907,3.975 -1.907,2.836" style="fill:#fff;stroke:#fff;stroke-width:2.08px;"/><path d="M976.795,899.445c11.311,-0.002 20.495,9.033 20.496,20.163c0.002,11.13 -9.181,20.167 -20.492,20.168c-11.311,0.001 -20.495,-9.034 -20.496,-20.163c-0.001,-11.13 9.181,-20.167 20.492,-20.168Z"/><path d="M1048.79,899.445c11.311,-0.002 20.496,9.033 20.497,20.163c0.001,11.13 -9.181,20.167 -20.492,20.168c-11.311,0.001 -20.495,-9.034 -20.496,-20.163c-0.002,-11.13 9.18,-20.167 20.491,-20.168Z"/></svg>