<svg class="cog-main" width="100%" height="100%" viewBox="0 0 500 500" version="1.1" xmlns="http://www.w3.org/2000/svg">
    <g transform="matrix(0.195312,0,0,0.3125,0,0)">
        <rect class="cog-background" x="0" y="0" width="2560" height="1600"/>
        <clipPath class="_clip1">
            <rect class="cog-background" serif:id="cog-vector" x="0" y="0" width="2560" height="1600"/>
        </clipPath>
            <g transform="matrix(32.4051,0,0,20.5911,-1976.71,-417.93)">
                <path d="M104.32,20.479C101.779,20.236 99.221,20.236 96.68,20.479L95.421,26.504C92.986,26.871 90.599,27.5 88.304,28.38L84.151,23.781C81.827,24.82 79.611,26.078 77.534,27.538L79.507,33.375C77.585,34.891 75.837,36.609 74.297,38.5L68.362,36.559C66.878,38.602 65.599,40.782 64.542,43.068L69.218,47.152C68.324,49.41 67.684,51.758 67.311,54.153L61.185,55.391C60.938,57.89 60.938,60.407 61.185,62.906L67.311,64.144C67.684,66.539 68.324,68.887 69.218,71.144L64.542,75.229C65.599,77.515 66.878,79.694 68.362,81.737L74.297,79.796C75.837,81.687 77.585,83.406 79.507,84.921L77.534,90.758C79.611,92.218 81.827,93.477 84.151,94.516L88.304,89.916C90.599,90.797 92.986,91.426 95.421,91.792L96.68,97.818C99.221,98.061 101.779,98.061 104.32,97.818L105.579,91.792C108.014,91.426 110.401,90.797 112.696,89.916L116.849,94.516C119.173,93.477 121.389,92.218 123.466,90.758L121.493,84.921C123.415,83.406 125.163,81.687 126.703,79.796L132.638,81.737C134.122,79.694 135.401,77.515 136.458,75.229L131.782,71.144C132.676,68.887 133.316,66.539 133.689,64.144L139.815,62.906C140.062,60.407 140.062,57.89 139.815,55.391L133.689,54.153C133.316,51.758 132.676,49.41 131.782,47.152L136.458,43.068C135.401,40.782 134.122,38.602 132.638,36.559L126.703,38.5C125.163,36.609 123.415,34.891 121.493,33.375L123.466,27.538C121.389,26.078 119.173,24.82 116.849,23.781L112.696,28.38C110.401,27.5 108.014,26.871 105.579,26.504L104.32,20.479ZM100.5,51.378C104.86,51.378 108.4,54.86 108.4,59.148C108.4,63.437 104.86,66.919 100.5,66.919C96.14,66.919 92.6,63.437 92.6,59.148C92.6,54.86 96.14,51.378 100.5,51.378Z"/>
            </g>
    </g>
</svg>
