<?xml version="1.0" encoding="UTF-8" standalone="no"?><!DOCTYPE svg PUBLIC "-//W3C//DTD SVG 1.1//EN" "http://www.w3.org/Graphics/SVG/1.1/DTD/svg11.dtd"><svg width="100%" height="100%" viewBox="0 0 2500 2030" version="1.1" xmlns="http://www.w3.org/2000/svg" xmlns:xlink="http://www.w3.org/1999/xlink" xml:space="preserve" xmlns:serif="http://www.serif.com/" style="fill-rule:evenodd;clip-rule:evenodd;stroke-linecap:round;stroke-linejoin:round;stroke-miterlimit:1.5;"><rect id="clock" x="0" y="0" width="2500" height="2029.17" style="fill:none;"/><g id="clock1" serif:id="clock"><g id="clock2" serif:id="clock"><path d="M1053.02,318.325c580.594,-393.759 782.239,-203.878 1131.73,241.28c396.899,505.543 273.783,472.821 -288.297,891.375c-562.079,418.553 -958.705,838.553 -1342.57,323.054c-383.867,-515.498 -80.834,-1062.37 499.139,-1455.71Z" style="fill:#d9f2ea;"/><path d="M693.916,311.437l-46.028,211.183l-138.77,-91.46l187.944,-134.157l-3.146,14.434" style="fill:none;stroke:#082b1f;stroke-width:55.93px;"/><path d="M1232.91,104.253c123.781,-0.569 249.439,28.775 366.111,91.314c374.287,200.624 515.278,667.38 314.654,1041.67c-200.625,374.287 -667.38,515.279 -1041.67,314.654c-374.287,-200.625 -515.278,-667.38 -314.654,-1041.67c4.524,-8.438 9.182,-16.759 13.972,-24.959c0.081,0.034 0.163,0.069 0.244,0.103" style="fill:none;stroke:#082b1f;stroke-width:61.56px;"/><circle cx="1235.51" cy="873.727" r="615.552" style="fill:#082b1f;stroke:#082b1f;stroke-width:61.56px;"/><g><circle cx="1235.51" cy="873.727" r="61.555" style="stroke:#d9f2ea;stroke-width:41.67px;"/><path d="M1235.51,873.727l-0,-486.286" style="fill:none;stroke:#d9f2ea;stroke-width:41.67px;"/><path d="M1235.51,873.727l184.284,-158.612" style="fill:none;stroke:#d9f2ea;stroke-width:41.67px;"/></g></g></g></svg>