<?xml version="1.0" encoding="UTF-8" standalone="no"?><!DOCTYPE svg PUBLIC "-//W3C//DTD SVG 1.1//EN" "http://www.w3.org/Graphics/SVG/1.1/DTD/svg11.dtd"><svg width="100%" height="100%" viewBox="0 0 1042 1042" version="1.1" xmlns="http://www.w3.org/2000/svg" xmlns:xlink="http://www.w3.org/1999/xlink" xml:space="preserve" xmlns:serif="http://www.serif.com/" style="fill-rule:evenodd;clip-rule:evenodd;stroke-linejoin:round;stroke-miterlimit:2;"><path d="M1041.67,52.083c-0,-28.745 -23.338,-52.083 -52.084,-52.083l-937.5,0c-28.745,0 -52.083,23.338 -52.083,52.083l-0,937.5c-0,28.746 23.338,52.084 52.083,52.084l937.5,-0c28.746,-0 52.084,-23.338 52.084,-52.084l-0,-937.5Z" style="fill:#14171a;"/><g><ellipse cx="557.595" cy="618.885" rx="272.524" ry="222.814" style="fill:#1da1f2;"/><path d="M259.349,839.844c-0,-0 521.316,78.061 527.978,-144.19c6.663,-222.25 -717.96,81.186 -527.978,144.19Z" style="fill:#1da1f2;"/><ellipse cx="728.898" cy="502.629" rx="136.371" ry="189.055" style="fill:#1da1f2;"/><path d="M981.886,345.635l-141.648,120.808l-24.454,-109.362l166.102,-11.446Z" style="fill:#1da1f2;"/><path d="M915.489,452.708l-21.493,-38.674l17.825,-9.881l3.668,48.555Z" style="fill:#1da1f2;"/><path d="M925.607,438.681l-21.493,-38.674l17.825,-9.882l3.668,48.556Z" style="fill:#1da1f2;"/><path d="M934.283,426.653l-21.493,-38.674l17.826,-9.882l3.667,48.556Z" style="fill:#1da1f2;"/><path d="M942.96,414.624l-21.493,-38.674l17.825,-9.881l3.668,48.555Z" style="fill:#1da1f2;"/><path d="M951.636,402.596l-21.493,-38.674l17.826,-9.882l3.667,48.556Z" style="fill:#1da1f2;"/><path d="M960.313,397.442l-21.493,-38.674l17.825,-9.881l3.668,48.555Z" style="fill:#1da1f2;"/><path d="M980.191,531.404l-158.085,-3.783l16.998,-95.149l141.087,98.932Z" style="fill:#1da1f2;"/><path d="M77.539,187.148c-0,0 -136.057,398.18 345.035,408.962c481.092,10.782 -220.716,-553.188 -345.035,-408.962Z" style="fill:#1da1f2;"/></g></svg>