<?xml version="1.0" encoding="UTF-8" standalone="no"?><!DOCTYPE svg PUBLIC "-//W3C//DTD SVG 1.1//EN" "http://www.w3.org/Graphics/SVG/1.1/DTD/svg11.dtd"><svg width="100%" height="100%" viewBox="0 0 8334 5757" version="1.1" xmlns="http://www.w3.org/2000/svg" xmlns:xlink="http://www.w3.org/1999/xlink" xml:space="preserve" xmlns:serif="http://www.serif.com/" style="fill-rule:evenodd;clip-rule:evenodd;stroke-linecap:round;stroke-linejoin:round;stroke-miterlimit:1.5;"><rect id="Artboard1" x="0" y="0" width="8333.33" height="5756.44" style="fill:#eff3fd;"/><clipPath id="_clip1"><rect id="Artboard11" serif:id="Artboard1" x="0" y="0" width="8333.33" height="5756.44"/></clipPath><g clip-path="url(#_clip1)"><g><path d="M-3029.17,3270.83l7581.11,-7581.11" style="fill:none;stroke:#becdf8;stroke-width:8.33px;"/><path d="M-2818.72,3481.28l7581.11,-7581.11" style="fill:none;stroke:#becdf8;stroke-width:8.33px;"/><path d="M-2608.26,3691.74l7581.11,-7581.11" style="fill:none;stroke:#becdf8;stroke-width:8.33px;"/><path d="M-2397.81,3902.19l7581.11,-7581.11" style="fill:none;stroke:#becdf8;stroke-width:8.33px;"/><path d="M-2187.36,4112.64l7581.11,-7581.11" style="fill:none;stroke:#becdf8;stroke-width:8.33px;"/><path d="M-1976.91,4323.09l7581.11,-7581.11" style="fill:none;stroke:#becdf8;stroke-width:8.33px;"/><path d="M-1766.46,4533.54l7581.11,-7581.11" style="fill:none;stroke:#becdf8;stroke-width:8.33px;"/><path d="M-1556.01,4743.99l7581.11,-7581.11" style="fill:none;stroke:#becdf8;stroke-width:8.33px;"/><path d="M-1345.56,4954.44l7581.11,-7581.11" style="fill:none;stroke:#becdf8;stroke-width:8.33px;"/><path d="M-1135.11,5164.9l7581.11,-7581.11" style="fill:none;stroke:#becdf8;stroke-width:8.33px;"/><path d="M-924.653,5375.35l7581.11,-7581.11" style="fill:none;stroke:#becdf8;stroke-width:8.33px;"/><path d="M-714.202,5585.8l7581.11,-7581.11" style="fill:none;stroke:#becdf8;stroke-width:8.33px;"/><path d="M-503.751,5796.25l7581.11,-7581.11" style="fill:none;stroke:#becdf8;stroke-width:8.33px;"/><path d="M-293.299,6006.7l7581.11,-7581.11" style="fill:none;stroke:#becdf8;stroke-width:8.33px;"/><path d="M-82.848,6217.15l7581.11,-7581.11" style="fill:none;stroke:#becdf8;stroke-width:8.33px;"/><path d="M127.603,6427.6l7581.11,-7581.11" style="fill:none;stroke:#becdf8;stroke-width:8.33px;"/><path d="M338.055,6638.06l7581.11,-7581.11" style="fill:none;stroke:#becdf8;stroke-width:8.33px;"/><path d="M548.506,6848.51l7581.11,-7581.11" style="fill:none;stroke:#becdf8;stroke-width:8.33px;"/><path d="M758.957,7058.96l7581.11,-7581.11" style="fill:none;stroke:#becdf8;stroke-width:8.33px;"/><path d="M969.409,7269.41l7581.11,-7581.11" style="fill:none;stroke:#becdf8;stroke-width:8.33px;"/><path d="M1179.86,7479.86l7581.11,-7581.11" style="fill:none;stroke:#becdf8;stroke-width:8.33px;"/><path d="M1390.31,7690.31l7581.11,-7581.11" style="fill:none;stroke:#becdf8;stroke-width:8.33px;"/><path d="M1600.76,7900.76l7581.11,-7581.11" style="fill:none;stroke:#becdf8;stroke-width:8.33px;"/><path d="M1811.21,8111.21l7581.11,-7581.11" style="fill:none;stroke:#becdf8;stroke-width:8.33px;"/><path d="M2021.66,8321.67l7581.11,-7581.11" style="fill:none;stroke:#becdf8;stroke-width:8.33px;"/><path d="M2232.12,8532.12l7581.11,-7581.11" style="fill:none;stroke:#becdf8;stroke-width:8.33px;"/><path d="M2442.57,8742.57l7581.11,-7581.11" style="fill:none;stroke:#becdf8;stroke-width:8.33px;"/><path d="M2653.02,8953.02l7581.11,-7581.11" style="fill:none;stroke:#becdf8;stroke-width:8.33px;"/><path d="M2863.47,9163.47l7581.11,-7581.11" style="fill:none;stroke:#becdf8;stroke-width:8.33px;"/><path d="M3073.92,9373.92l7581.11,-7581.11" style="fill:none;stroke:#becdf8;stroke-width:8.33px;"/><path d="M3284.37,9584.37l7581.11,-7581.11" style="fill:none;stroke:#becdf8;stroke-width:8.33px;"/><path d="M3494.83,9794.83l7581.11,-7581.11" style="fill:none;stroke:#becdf8;stroke-width:8.33px;"/><path d="M3705.28,10005.3l7581.11,-7581.11" style="fill:none;stroke:#becdf8;stroke-width:8.33px;"/><path d="M3915.73,10215.7l7581.11,-7581.11" style="fill:none;stroke:#becdf8;stroke-width:8.33px;"/></g><path id="blade" d="M9940.45,887.5c2060.04,6507.24 -8324.77,12829.8 -10208.3,5600c6.047,-394.345 1515.54,-4132.73 5250,-2450c2642.8,1190.83 4913.15,-3292.71 4958.33,-3150Z" style="fill:#fff;"/></g></svg>