<?xml version="1.0" encoding="UTF-8" standalone="no"?><!DOCTYPE svg PUBLIC "-//W3C//DTD SVG 1.1//EN" "http://www.w3.org/Graphics/SVG/1.1/DTD/svg11.dtd"><svg width="100%" height="100%" viewBox="0 0 8334 4688" version="1.1" xmlns="http://www.w3.org/2000/svg" xmlns:xlink="http://www.w3.org/1999/xlink" xml:space="preserve" xmlns:serif="http://www.serif.com/" style="fill-rule:evenodd;clip-rule:evenodd;stroke-linejoin:round;stroke-miterlimit:2;"><rect id="Artboard1" x="0" y="0" width="8333.33" height="4687.5" style="fill:#90ff97;"/><clipPath id="_clip1"><rect id="Artboard11" serif:id="Artboard1" x="0" y="0" width="8333.33" height="4687.5"/></clipPath><g clip-path="url(#_clip1)"><path d="M200.703,-217.37c0,-121.493 98.637,-220.13 220.13,-220.13c121.493,-0 220.13,98.637 220.13,220.13c60.747,-105.216 195.488,-141.32 300.704,-80.573c105.216,60.746 141.319,195.487 80.573,300.703c105.216,-60.746 239.957,-24.643 300.703,80.573c60.747,105.216 24.643,239.957 -80.573,300.704c121.493,-0 220.13,98.637 220.13,220.13c0,121.493 -98.637,220.13 -220.13,220.13c105.216,60.746 141.32,195.487 80.573,300.703c-60.746,105.216 -195.487,141.32 -300.703,80.573c60.746,105.216 24.643,239.957 -80.573,300.703c-105.216,60.747 -239.957,24.643 -300.704,-80.573c0,121.493 -98.637,220.13 -220.13,220.13c-121.493,0 -220.13,-98.637 -220.13,-220.13c-60.746,105.216 -195.487,141.32 -300.703,80.573c-105.216,-60.746 -141.32,-195.487 -80.573,-300.703c-105.216,60.747 -239.957,24.643 -300.703,-80.573c-60.747,-105.216 -24.643,-239.957 80.573,-300.703c-121.493,-0 -220.13,-98.637 -220.13,-220.13c-0,-121.493 98.637,-220.13 220.13,-220.13c-105.216,-60.747 -141.32,-195.488 -80.573,-300.704c60.746,-105.216 195.487,-141.319 300.703,-80.573c-60.747,-105.216 -24.643,-239.957 80.573,-300.703c105.216,-60.747 239.957,-24.643 300.703,80.573Z" style="fill:#ebebeb;"/><path d="M2192.89,1774.81c-0,-121.493 98.637,-220.13 220.13,-220.13c121.493,-0 220.13,98.637 220.13,220.13c60.747,-105.216 195.487,-141.32 300.703,-80.574c105.216,60.747 141.32,195.488 80.573,300.704c105.217,-60.747 239.957,-24.643 300.704,80.573c60.746,105.216 24.643,239.957 -80.573,300.703c121.493,0 220.13,98.637 220.13,220.13c-0,121.493 -98.637,220.13 -220.13,220.13c105.216,60.747 141.319,195.487 80.573,300.704c-60.747,105.216 -195.487,141.319 -300.704,80.573c60.747,105.216 24.643,239.956 -80.573,300.703c-105.216,60.747 -239.956,24.643 -300.703,-80.573c-0,121.493 -98.637,220.13 -220.13,220.13c-121.493,-0 -220.13,-98.637 -220.13,-220.13c-60.747,105.216 -195.487,141.32 -300.703,80.573c-105.217,-60.747 -141.32,-195.487 -80.574,-300.703c-105.216,60.746 -239.956,24.643 -300.703,-80.573c-60.746,-105.217 -24.643,-239.957 80.573,-300.704c-121.493,0 -220.13,-98.637 -220.13,-220.13c0,-121.493 98.637,-220.13 220.13,-220.13c-105.216,-60.746 -141.319,-195.487 -80.573,-300.703c60.747,-105.216 195.487,-141.32 300.703,-80.573c-60.746,-105.216 -24.643,-239.957 80.574,-300.704c105.216,-60.746 239.956,-24.642 300.703,80.574Z" style="fill:#ebebeb;"/><path d="M4424.31,-456.613c0,-121.493 98.637,-220.13 220.13,-220.13c121.493,0 220.13,98.637 220.13,220.13c60.747,-105.216 195.487,-141.319 300.704,-80.573c105.216,60.747 141.319,195.487 80.573,300.703c105.216,-60.746 239.956,-24.643 300.703,80.574c60.747,105.216 24.643,239.956 -80.573,300.703c121.493,-0 220.13,98.637 220.13,220.13c-0,121.493 -98.637,220.13 -220.13,220.13c105.216,60.746 141.32,195.487 80.573,300.703c-60.747,105.216 -195.487,141.32 -300.703,80.573c60.746,105.217 24.643,239.957 -80.573,300.704c-105.217,60.746 -239.957,24.643 -300.704,-80.573c0,121.493 -98.637,220.13 -220.13,220.13c-121.493,-0 -220.13,-98.637 -220.13,-220.13c-60.746,105.216 -195.487,141.319 -300.703,80.573c-105.216,-60.747 -141.32,-195.487 -80.573,-300.704c-105.216,60.747 -239.957,24.643 -300.704,-80.573c-60.746,-105.216 -24.642,-239.957 80.574,-300.703c-121.493,-0 -220.13,-98.637 -220.13,-220.13c-0,-121.493 98.637,-220.13 220.13,-220.13c-105.216,-60.747 -141.32,-195.487 -80.574,-300.703c60.747,-105.217 195.488,-141.32 300.704,-80.574c-60.747,-105.216 -24.643,-239.956 80.573,-300.703c105.216,-60.746 239.957,-24.643 300.703,80.573Z" style="fill:#ebebeb;"/><path d="M4615.9,3726.42c0,-121.493 98.637,-220.13 220.13,-220.13c121.493,0 220.13,98.637 220.13,220.13c60.747,-105.216 195.487,-141.319 300.704,-80.573c105.216,60.747 141.319,195.487 80.573,300.703c105.216,-60.746 239.956,-24.643 300.703,80.574c60.747,105.216 24.643,239.956 -80.573,300.703c121.493,-0 220.13,98.637 220.13,220.13c-0,121.493 -98.637,220.13 -220.13,220.13c105.216,60.746 141.32,195.487 80.573,300.703c-60.747,105.216 -195.487,141.32 -300.703,80.573c60.746,105.217 24.643,239.957 -80.573,300.704c-105.217,60.746 -239.957,24.643 -300.704,-80.574c0,121.494 -98.637,220.131 -220.13,220.131c-121.493,-0 -220.13,-98.637 -220.13,-220.131c-60.746,105.217 -195.487,141.32 -300.703,80.574c-105.216,-60.747 -141.32,-195.487 -80.573,-300.704c-105.216,60.747 -239.957,24.643 -300.704,-80.573c-60.746,-105.216 -24.642,-239.957 80.574,-300.703c-121.493,-0 -220.13,-98.637 -220.13,-220.13c-0,-121.493 98.637,-220.13 220.13,-220.13c-105.216,-60.747 -141.32,-195.487 -80.574,-300.703c60.747,-105.217 195.488,-141.32 300.704,-80.574c-60.747,-105.216 -24.643,-239.956 80.573,-300.703c105.216,-60.746 239.957,-24.643 300.703,80.573Z" style="fill:#ebebeb;"/><path d="M7707.49,2826.57c-0,-121.493 98.637,-220.13 220.13,-220.13c121.493,-0 220.13,98.637 220.13,220.13c60.746,-105.216 195.487,-141.32 300.703,-80.573c105.216,60.746 141.32,195.487 80.573,300.703c105.216,-60.747 239.957,-24.643 300.704,80.573c60.746,105.216 24.642,239.957 -80.574,300.703c121.493,0 220.13,98.637 220.13,220.13c0,121.493 -98.637,220.13 -220.13,220.13c105.216,60.747 141.32,195.488 80.574,300.704c-60.747,105.216 -195.488,141.319 -300.704,80.573c60.747,105.216 24.643,239.957 -80.573,300.703c-105.216,60.747 -239.957,24.643 -300.703,-80.573c-0,121.493 -98.637,220.13 -220.13,220.13c-121.493,0 -220.13,-98.637 -220.13,-220.13c-60.747,105.216 -195.488,141.32 -300.704,80.573c-105.216,-60.746 -141.319,-195.487 -80.573,-300.703c-105.216,60.746 -239.957,24.643 -300.703,-80.573c-60.747,-105.216 -24.643,-239.957 80.573,-300.704c-121.493,0 -220.13,-98.637 -220.13,-220.13c0,-121.493 98.637,-220.13 220.13,-220.13c-105.216,-60.746 -141.32,-195.487 -80.573,-300.703c60.746,-105.216 195.487,-141.32 300.703,-80.573c-60.746,-105.216 -24.643,-239.957 80.573,-300.703c105.216,-60.747 239.957,-24.643 300.704,80.573Z" style="fill:#ebebeb;"/></g></svg>