<?xml version="1.0" encoding="UTF-8" standalone="no"?><!DOCTYPE svg PUBLIC "-//W3C//DTD SVG 1.1//EN" "http://www.w3.org/Graphics/SVG/1.1/DTD/svg11.dtd"><svg width="100%" height="100%" viewBox="0 0 8334 4688" version="1.1" xmlns="http://www.w3.org/2000/svg" xmlns:xlink="http://www.w3.org/1999/xlink" xml:space="preserve" xmlns:serif="http://www.serif.com/" style="fill-rule:evenodd;clip-rule:evenodd;stroke-linejoin:round;stroke-miterlimit:2;"><rect id="article-photo-1" x="0" y="0" width="8333.33" height="4687.5" style="fill:#7679ff;"/><clipPath id="_clip1"><rect id="article-photo-11" serif:id="article-photo-1" x="0" y="0" width="8333.33" height="4687.5"/></clipPath><g clip-path="url(#_clip1)"><path d="M1388.74,6.056l862.775,1189.51l-864.681,1188.13l-1397.18,-455.209l1.178,-1469.46l1397.91,-452.969Z" style="fill:#ebebeb;"/><path d="M2040.04,2640.81l1188.82,863.729l-454.089,1397.54l-1469.46,0l-454.089,-1397.54l1188.82,-863.729Z" style="fill:#ebebeb;"/><path d="M5335.99,2229.38l-698.702,1292.73l-1445.37,-265.031l-194.582,-1456.52l1325.11,-635.15l1013.54,1063.98Z" style="fill:#ebebeb;"/><path d="M6720.54,-862.603l1188.82,863.728l-454.09,1397.54l-1469.46,-0l-454.089,-1397.54l1188.82,-863.728Z" style="fill:#ebebeb;"/><path d="M7909.36,2980.68l1188.82,863.729l-454.089,1397.54l-1469.46,0l-454.089,-1397.54l1188.82,-863.729Z" style="fill:#ebebeb;"/></g></svg>