<?xml version="1.0" encoding="UTF-8" standalone="no"?><!DOCTYPE svg PUBLIC "-//W3C//DTD SVG 1.1//EN" "http://www.w3.org/Graphics/SVG/1.1/DTD/svg11.dtd"><svg width="100%" height="100%" viewBox="0 0 1255 1253" version="1.1" xmlns="http://www.w3.org/2000/svg" xmlns:xlink="http://www.w3.org/1999/xlink" xml:space="preserve" xmlns:serif="http://www.serif.com/" style="fill-rule:evenodd;clip-rule:evenodd;stroke-linejoin:round;stroke-miterlimit:2;"><path d="M386.456,1206.09c-112.569,-46.623 -212.749,-126.432 -284.364,-236.035c-153.114,-234.336 -129.055,-533.558 39.036,-739.574l245.328,975.609Zm73.225,-1183.5c256.006,-70.849 539.344,27.321 692.327,261.456c71.587,109.562 104.446,233.308 101.961,355.081l-794.288,-616.537Zm721.75,897.591c-48.014,91.077 -119.146,171.566 -211.375,231.829c-92.221,60.257 -194.492,93.074 -297.176,100.471l-66.291,-245.007l377.223,-246.477l197.619,159.184Zm-366.267,-295.031l-265.145,173.245l-129.71,-479.397l8.162,-5.333l386.693,311.485Z" style="fill:url(#_Linear1);"/><defs><linearGradient id="_Linear1" x1="0" y1="0" x2="1" y2="0" gradientUnits="userSpaceOnUse" gradientTransform="matrix(1253.38,8.71597,-8.71597,1253.38,4.54747e-13,626.24)"><stop offset="0" style="stop-color:#ff952e;stop-opacity:1"/><stop offset="0.29" style="stop-color:#ffdd5c;stop-opacity:1"/><stop offset="0.67" style="stop-color:#ff9e92;stop-opacity:1"/><stop offset="1" style="stop-color:#ff86a7;stop-opacity:1"/></linearGradient></defs></svg>