<?xml version="1.0" encoding="UTF-8" standalone="no"?><!DOCTYPE svg PUBLIC "-//W3C//DTD SVG 1.1//EN" "http://www.w3.org/Graphics/SVG/1.1/DTD/svg11.dtd"><svg width="100%" height="100%" viewBox="0 0 900 473" version="1.1" xmlns="http://www.w3.org/2000/svg" xmlns:xlink="http://www.w3.org/1999/xlink" xml:space="preserve" xmlns:serif="http://www.serif.com/" style="fill-rule:evenodd;clip-rule:evenodd;stroke-linecap:round;stroke-linejoin:round;stroke-miterlimit:1.5;"><rect id="open-graph-image" x="-0" y="0" width="900" height="472.5" style="fill:none;"/><clipPath id="_clip1"><rect x="-0" y="0" width="900" height="472.5"/></clipPath><g clip-path="url(#_clip1)"><rect x="0" y="0" width="900" height="472.5" style="fill:#f7fafd;"/><g><g><path d="M205.875,262.86l-0,45c-0,8.279 -6.721,15 -15,15l-45,0c-8.279,0 -15,-6.721 -15,-15l-0,-45c-0,-8.278 6.721,-15 15,-15l45,0c8.279,0 15,6.722 15,15Z" style="fill:#d9bfa6;stroke:#d9bfa6;stroke-width:3.54px;"/><path d="M297.381,262.86l0,45c0,8.279 -6.721,15 -15,15l-45,0c-8.279,0 -15,-6.721 -15,-15l0,-45c0,-8.278 6.721,-15 15,-15l45,0c8.279,0 15,6.722 15,15Z" style="fill:#bfd9a6;stroke:#bfd9a6;stroke-width:3.54px;"/><path d="M388.887,262.86l0,45c0,8.279 -6.721,15 -15,15l-45,0c-8.278,0 -15,-6.721 -15,-15l0,-45c0,-8.278 6.722,-15 15,-15l45,0c8.279,0 15,6.722 15,15Z" style="fill:#a6d9bf;stroke:#a6d9bf;stroke-width:3.54px;"/><path d="M480.393,262.86l0,45c0,8.279 -6.721,15 -15,15l-45,0c-8.278,0 -15,-6.721 -15,-15l0,-45c0,-8.278 6.722,-15 15,-15l45,0c8.279,0 15,6.722 15,15Z" style="fill:#a6bfd9;stroke:#004d99;stroke-width:3.54px;"/><path d="M571.9,262.86l-0,45c-0,8.279 -6.722,15 -15,15l-45,0c-8.279,0 -15,-6.721 -15,-15l-0,-45c-0,-8.278 6.721,-15 15,-15l45,0c8.278,0 15,6.722 15,15Z" style="fill:#bfa6d9;stroke:#bfa6d9;stroke-width:3.54px;"/><path d="M663.406,262.86l-0,45c-0,8.279 -6.722,15 -15,15l-45,0c-8.279,0 -15,-6.721 -15,-15l-0,-45c-0,-8.278 6.721,-15 15,-15l45,0c8.278,0 15,6.722 15,15Z" style="fill:#d9a6bf;stroke:#d9a6bf;stroke-width:3.54px;"/></g><g transform="matrix(66.6667,0,0,66.6667,739.871,213.632)"></g><text x="130.875px" y="213.632px" style="font-family:'Inter-Regular_SemiBold', 'Inter';font-size:66.667px;fill:#0b2641;">let&apos;s build together.</text></g></g></svg>