<?xml version="1.0" encoding="UTF-8" standalone="no"?><!DOCTYPE svg PUBLIC "-//W3C//DTD SVG 1.1//EN" "http://www.w3.org/Graphics/SVG/1.1/DTD/svg11.dtd"><svg width="100%" height="100%" viewBox="0 0 900 473" version="1.1" xmlns="http://www.w3.org/2000/svg" xmlns:xlink="http://www.w3.org/1999/xlink" xml:space="preserve" xmlns:serif="http://www.serif.com/" style="fill-rule:evenodd;clip-rule:evenodd;stroke-linecap:round;stroke-linejoin:round;stroke-miterlimit:1.5;"><rect x="0" y="-0" width="900" height="472.5" style="fill:#f7fafd;"/><g><g><rect x="142.394" y="162.147" width="8.58" height="48.485" style="fill:#0b2641;fill-rule:nonzero;"/><path d="M174.326,211.352c-3.656,-0 -6.803,-0.765 -9.444,-2.294c-2.64,-1.53 -4.672,-3.695 -6.094,-6.497c-1.422,-2.801 -2.133,-6.102 -2.133,-9.902c0,-3.738 0.713,-7.023 2.138,-9.856c1.425,-2.833 3.426,-5.043 6.004,-6.629c2.577,-1.586 5.602,-2.379 9.074,-2.379c2.235,0 4.351,0.36 6.35,1.08c1.998,0.719 3.767,1.826 5.307,3.321c1.541,1.495 2.751,3.399 3.632,5.713c0.881,2.313 1.321,5.066 1.321,8.257l-0,2.633l-29.811,-0l0,-5.777l21.591,0c-0.006,-1.647 -0.356,-3.114 -1.048,-4.398c-0.693,-1.285 -1.659,-2.297 -2.898,-3.035c-1.239,-0.739 -2.682,-1.108 -4.33,-1.108c-1.758,-0 -3.299,0.419 -4.623,1.257c-1.325,0.838 -2.353,1.94 -3.085,3.307c-0.733,1.367 -1.105,2.863 -1.118,4.489l0,5.038c0,2.114 0.385,3.925 1.153,5.433c0.769,1.507 1.848,2.661 3.237,3.461c1.388,0.8 3.019,1.2 4.89,1.2c1.241,0 2.369,-0.176 3.383,-0.528c1.015,-0.352 1.891,-0.877 2.626,-1.577c0.735,-0.699 1.296,-1.563 1.681,-2.592l8.011,0.909c-0.505,2.109 -1.466,3.948 -2.883,5.519c-1.418,1.57 -3.222,2.789 -5.412,3.655c-2.191,0.867 -4.697,1.3 -7.519,1.3Z" style="fill:#0b2641;fill-rule:nonzero;"/><path d="M215.197,174.269l-0,6.628l-20.89,0l-0,-6.628l20.89,-0Zm-15.739,-8.713l8.58,0l0,34.148c0,1.149 0.174,2.026 0.523,2.63c0.349,0.605 0.816,1.018 1.402,1.241c0.585,0.222 1.238,0.334 1.958,0.334c0.527,-0 1.014,-0.041 1.463,-0.121c0.448,-0.081 0.794,-0.148 1.036,-0.202l1.44,6.686c-0.461,0.155 -1.111,0.328 -1.951,0.519c-0.839,0.191 -1.869,0.302 -3.087,0.334c-2.146,0.063 -4.079,-0.266 -5.798,-0.985c-1.719,-0.72 -3.079,-1.834 -4.081,-3.343c-1.002,-1.509 -1.497,-3.406 -1.485,-5.692l0,-35.549Z" style="fill:#0b2641;fill-rule:nonzero;"/><rect x="220.67" y="162.147" width="6.534" height="17.841" style="fill:#0b2641;fill-rule:nonzero;"/><path d="M264.799,183.89l-7.822,0.852c-0.214,-0.799 -0.596,-1.544 -1.143,-2.237c-0.548,-0.693 -1.278,-1.254 -2.19,-1.683c-0.912,-0.43 -2.03,-0.644 -3.352,-0.644c-1.784,-0 -3.279,0.387 -4.487,1.162c-1.207,0.775 -1.807,1.783 -1.801,3.023c-0.006,1.048 0.39,1.905 1.188,2.571c0.799,0.666 2.12,1.211 3.963,1.634l6.194,1.326c3.44,0.745 6.004,1.923 7.689,3.534c1.686,1.611 2.532,3.716 2.538,6.314c-0.006,2.285 -0.672,4.301 -1.996,6.046c-1.324,1.746 -3.151,3.11 -5.48,4.091c-2.33,0.982 -5.015,1.473 -8.055,1.473c-4.447,-0 -8.027,-0.938 -10.738,-2.813c-2.712,-1.875 -4.334,-4.485 -4.868,-7.831l8.372,-0.795c0.372,1.635 1.176,2.87 2.412,3.707c1.236,0.836 2.837,1.255 4.804,1.255c2.042,-0 3.681,-0.416 4.917,-1.248c1.235,-0.832 1.857,-1.868 1.863,-3.109c-0.006,-1.035 -0.409,-1.893 -1.208,-2.573c-0.798,-0.68 -2.031,-1.199 -3.697,-1.555l-6.213,-1.307c-3.481,-0.732 -6.058,-1.961 -7.729,-3.686c-1.672,-1.725 -2.504,-3.912 -2.498,-6.56c-0.006,-2.241 0.608,-4.187 1.844,-5.838c1.236,-1.651 2.961,-2.931 5.175,-3.84c2.215,-0.909 4.78,-1.364 7.697,-1.364c4.262,0 7.618,0.909 10.069,2.727c2.451,1.819 3.968,4.274 4.552,7.368Z" style="fill:#0b2641;fill-rule:nonzero;"/><path d="M290.026,210.632l0,-48.485l8.58,0l0,18.125l0.36,0c0.436,-0.871 1.057,-1.809 1.863,-2.814c0.807,-1.006 1.896,-1.868 3.267,-2.586c1.372,-0.718 3.128,-1.077 5.268,-1.077c2.797,0 5.33,0.715 7.599,2.145c2.27,1.43 4.071,3.537 5.403,6.321c1.332,2.784 1.998,6.199 1.998,10.246c-0,3.99 -0.654,7.383 -1.961,10.178c-1.306,2.795 -3.09,4.926 -5.35,6.392c-2.26,1.466 -4.817,2.199 -7.67,2.199c-2.084,0 -3.813,-0.346 -5.19,-1.039c-1.376,-0.693 -2.479,-1.534 -3.309,-2.524c-0.83,-0.989 -1.47,-1.929 -1.918,-2.82l-0.511,0l-0,5.739l-8.429,0Zm8.41,-18.182c-0,2.355 0.334,4.417 1.004,6.186c0.669,1.769 1.639,3.147 2.911,4.134c1.272,0.986 2.821,1.479 4.645,1.479c1.881,0 3.462,-0.509 4.742,-1.527c1.28,-1.018 2.249,-2.416 2.907,-4.195c0.658,-1.778 0.987,-3.804 0.987,-6.077c0,-2.253 -0.324,-4.255 -0.973,-6.006c-0.648,-1.75 -1.612,-3.125 -2.892,-4.124c-1.28,-0.999 -2.871,-1.498 -4.771,-1.498c-1.843,-0 -3.401,0.48 -4.673,1.442c-1.272,0.961 -2.238,2.312 -2.898,4.052c-0.659,1.741 -0.989,3.786 -0.989,6.134Z" style="fill:#0b2641;fill-rule:nonzero;"/><path d="M354.212,195.348l0,-21.079l8.58,-0l-0,36.363l-8.315,0l0,-6.458l-0.379,-0c-0.827,2.036 -2.175,3.7 -4.043,4.993c-1.869,1.292 -4.17,1.939 -6.904,1.939c-2.38,-0 -4.48,-0.535 -6.302,-1.603c-1.821,-1.069 -3.245,-2.622 -4.27,-4.659c-1.026,-2.038 -1.542,-4.515 -1.549,-7.432l0,-23.143l8.58,-0l-0,21.818c0.006,2.31 0.638,4.144 1.896,5.502c1.258,1.357 2.911,2.036 4.96,2.036c1.269,-0 2.496,-0.307 3.681,-0.919c1.186,-0.613 2.161,-1.531 2.926,-2.756c0.766,-1.224 1.145,-2.758 1.139,-4.602Z" style="fill:#0b2641;fill-rule:nonzero;"/><path d="M369.761,210.632l0,-36.363l8.58,-0l-0,36.363l-8.58,0Zm4.323,-41.515c-1.363,0 -2.532,-0.456 -3.506,-1.369c-0.974,-0.912 -1.46,-2.009 -1.46,-3.291c-0,-1.281 0.487,-2.377 1.462,-3.29c0.974,-0.912 2.141,-1.368 3.5,-1.368c1.366,-0 2.535,0.456 3.506,1.368c0.971,0.913 1.456,2.01 1.456,3.291c-0,1.282 -0.485,2.378 -1.456,3.291c-0.971,0.912 -2.138,1.368 -3.502,1.368Z" style="fill:#0b2641;fill-rule:nonzero;"/><rect x="385.576" y="162.147" width="8.58" height="48.485" style="fill:#0b2641;fill-rule:nonzero;"/><path d="M414.894,211.276c-2.854,0 -5.41,-0.733 -7.671,-2.199c-2.26,-1.466 -4.043,-3.597 -5.35,-6.392c-1.307,-2.795 -1.96,-6.188 -1.96,-10.178c-0,-4.047 0.666,-7.462 1.998,-10.246c1.332,-2.784 3.133,-4.891 5.402,-6.321c2.27,-1.43 4.803,-2.145 7.6,-2.145c2.14,0 3.896,0.359 5.267,1.077c1.372,0.718 2.461,1.58 3.267,2.586c0.807,1.005 1.428,1.943 1.864,2.814l0.36,0l-0,-18.125l8.579,0l0,48.485l-8.428,0l-0,-5.739l-0.511,0c-0.449,0.891 -1.088,1.831 -1.918,2.82c-0.83,0.99 -1.934,1.831 -3.31,2.524c-1.376,0.693 -3.106,1.039 -5.189,1.039Zm2.386,-7.027c1.825,0 3.373,-0.493 4.645,-1.479c1.272,-0.987 2.243,-2.365 2.912,-4.134c0.669,-1.769 1.004,-3.831 1.004,-6.186c-0,-2.348 -0.33,-4.393 -0.99,-6.134c-0.659,-1.74 -1.625,-3.091 -2.898,-4.052c-1.272,-0.962 -2.829,-1.442 -4.673,-1.442c-1.9,-0 -3.49,0.499 -4.77,1.498c-1.28,0.999 -2.244,2.374 -2.893,4.124c-0.649,1.751 -0.973,3.753 -0.973,6.006c-0,2.273 0.329,4.299 0.987,6.077c0.658,1.779 1.628,3.177 2.908,4.195c1.28,1.018 2.86,1.527 4.741,1.527Z" style="fill:#0b2641;fill-rule:nonzero;"/><path d="M479.686,174.269l-0,6.628l-20.89,0l-0,-6.628l20.89,-0Zm-15.739,-8.713l8.58,0l-0,34.148c-0,1.149 0.174,2.026 0.523,2.63c0.349,0.605 0.816,1.018 1.401,1.241c0.586,0.222 1.238,0.334 1.958,0.334c0.527,-0 1.015,-0.041 1.463,-0.121c0.449,-0.081 0.794,-0.148 1.037,-0.202l1.439,6.686c-0.46,0.155 -1.11,0.328 -1.95,0.519c-0.84,0.191 -1.869,0.302 -3.087,0.334c-2.147,0.063 -4.079,-0.266 -5.798,-0.985c-1.719,-0.72 -3.079,-1.834 -4.082,-3.343c-1.002,-1.509 -1.497,-3.406 -1.484,-5.692l-0,-35.549Z" style="fill:#0b2641;fill-rule:nonzero;"/><path d="M501.258,211.352c-3.548,-0 -6.625,-0.783 -9.231,-2.349c-2.606,-1.565 -4.623,-3.754 -6.051,-6.567c-1.428,-2.812 -2.143,-6.091 -2.143,-9.834c0,-3.763 0.715,-7.055 2.143,-9.877c1.428,-2.822 3.445,-5.016 6.051,-6.581c2.606,-1.566 5.683,-2.349 9.231,-2.349c3.548,0 6.624,0.783 9.23,2.349c2.606,1.565 4.623,3.759 6.051,6.581c1.429,2.822 2.143,6.114 2.143,9.877c-0,3.743 -0.714,7.022 -2.143,9.834c-1.428,2.813 -3.445,5.002 -6.051,6.567c-2.606,1.566 -5.682,2.349 -9.23,2.349Zm0.037,-6.875c1.939,-0 3.552,-0.532 4.839,-1.596c1.288,-1.063 2.253,-2.495 2.893,-4.294c0.641,-1.799 0.962,-3.807 0.962,-6.023c-0,-2.222 -0.321,-4.236 -0.962,-6.042c-0.64,-1.805 -1.605,-3.245 -2.893,-4.318c-1.287,-1.073 -2.9,-1.61 -4.839,-1.61c-1.963,0 -3.595,0.537 -4.895,1.61c-1.301,1.073 -2.271,2.513 -2.912,4.318c-0.641,1.806 -0.961,3.82 -0.961,6.042c-0,2.216 0.32,4.224 0.961,6.023c0.641,1.799 1.611,3.231 2.912,4.294c1.3,1.064 2.932,1.596 4.895,1.596Z" style="fill:#0b2641;fill-rule:nonzero;"/><path d="M540.973,225.026c-3.077,0 -5.718,-0.413 -7.921,-1.238c-2.203,-0.825 -3.977,-1.933 -5.32,-3.324c-1.343,-1.39 -2.276,-2.932 -2.8,-4.624l7.708,-1.875c0.354,0.707 0.863,1.414 1.53,2.119c0.666,0.706 1.563,1.293 2.691,1.762c1.129,0.468 2.55,0.703 4.264,0.703c2.437,-0 4.451,-0.591 6.042,-1.771c1.591,-1.181 2.386,-3.109 2.386,-5.786l0,-6.894l-0.436,0c-0.435,0.89 -1.074,1.799 -1.915,2.725c-0.841,0.926 -1.956,1.704 -3.343,2.334c-1.387,0.63 -3.119,0.945 -5.196,0.945c-2.797,-0 -5.328,-0.657 -7.593,-1.97c-2.264,-1.313 -4.062,-3.286 -5.392,-5.918c-1.331,-2.633 -1.996,-5.925 -1.996,-9.877c-0,-3.99 0.666,-7.365 1.998,-10.126c1.332,-2.76 3.133,-4.853 5.402,-6.278c2.27,-1.425 4.803,-2.138 7.6,-2.138c2.14,0 3.9,0.359 5.281,1.077c1.381,0.718 2.48,1.58 3.296,2.586c0.816,1.005 1.442,1.943 1.877,2.814l0.455,0l-0,-6.003l8.466,-0l-0,36.95c-0,3.106 -0.741,5.68 -2.223,7.72c-1.482,2.041 -3.51,3.566 -6.084,4.574c-2.575,1.009 -5.5,1.513 -8.777,1.513Zm0.076,-21.648c1.825,0 3.373,-0.442 4.645,-1.326c1.272,-0.883 2.243,-2.154 2.912,-3.811c0.669,-1.657 1.004,-3.644 1.004,-5.961c-0,-2.292 -0.33,-4.296 -0.99,-6.013c-0.66,-1.718 -1.625,-3.054 -2.898,-4.011c-1.272,-0.956 -2.829,-1.434 -4.673,-1.434c-1.9,-0 -3.49,0.497 -4.77,1.491c-1.28,0.994 -2.244,2.355 -2.893,4.081c-0.649,1.727 -0.973,3.689 -0.973,5.886c-0,2.235 0.329,4.183 0.987,5.845c0.658,1.662 1.627,2.953 2.907,3.873c1.28,0.92 2.861,1.38 4.742,1.38Z" style="fill:#0b2641;fill-rule:nonzero;"/><path d="M581.902,211.352c-3.656,-0 -6.804,-0.765 -9.444,-2.294c-2.641,-1.53 -4.672,-3.695 -6.094,-6.497c-1.422,-2.801 -2.133,-6.102 -2.133,-9.902c0,-3.738 0.713,-7.023 2.138,-9.856c1.425,-2.833 3.426,-5.043 6.004,-6.629c2.577,-1.586 5.602,-2.379 9.074,-2.379c2.235,0 4.351,0.36 6.349,1.08c1.998,0.719 3.768,1.826 5.308,3.321c1.541,1.495 2.751,3.399 3.632,5.713c0.88,2.313 1.321,5.066 1.321,8.257l-0,2.633l-29.811,-0l0,-5.777l21.591,0c-0.006,-1.647 -0.356,-3.114 -1.049,-4.398c-0.693,-1.285 -1.659,-2.297 -2.897,-3.035c-1.239,-0.739 -2.683,-1.108 -4.33,-1.108c-1.758,-0 -3.3,0.419 -4.624,1.257c-1.324,0.838 -2.352,1.94 -3.085,3.307c-0.732,1.367 -1.105,2.863 -1.117,4.489l-0,5.038c-0,2.114 0.384,3.925 1.153,5.433c0.769,1.507 1.847,2.661 3.236,3.461c1.389,0.8 3.019,1.2 4.891,1.2c1.241,0 2.368,-0.176 3.383,-0.528c1.015,-0.352 1.89,-0.877 2.626,-1.577c0.735,-0.699 1.295,-1.563 1.681,-2.592l8.011,0.909c-0.505,2.109 -1.466,3.948 -2.884,5.519c-1.417,1.57 -3.221,2.789 -5.412,3.655c-2.19,0.867 -4.696,1.3 -7.518,1.3Z" style="fill:#0b2641;fill-rule:nonzero;"/><path d="M622.773,174.269l-0,6.628l-20.89,0l-0,-6.628l20.89,-0Zm-15.739,-8.713l8.58,0l-0,34.148c-0,1.149 0.174,2.026 0.523,2.63c0.349,0.605 0.816,1.018 1.401,1.241c0.586,0.222 1.239,0.334 1.958,0.334c0.527,-0 1.015,-0.041 1.463,-0.121c0.449,-0.081 0.794,-0.148 1.037,-0.202l1.44,6.686c-0.461,0.155 -1.111,0.328 -1.951,0.519c-0.84,0.191 -1.869,0.302 -3.087,0.334c-2.147,0.063 -4.079,-0.266 -5.798,-0.985c-1.719,-0.72 -3.079,-1.834 -4.081,-3.343c-1.003,-1.509 -1.497,-3.406 -1.485,-5.692l0,-35.549Z" style="fill:#0b2641;fill-rule:nonzero;"/><path d="M638.189,189.325l0,21.307l-8.579,0l-0,-48.485l8.39,0l-0,18.296l0.436,-0c0.839,-2.055 2.155,-3.677 3.946,-4.865c1.792,-1.189 4.081,-1.783 6.868,-1.783c2.516,0 4.713,0.53 6.591,1.589c1.878,1.059 3.337,2.607 4.377,4.645c1.041,2.037 1.557,4.524 1.551,7.459l-0,23.144l-8.58,0l0,-21.818c0.007,-2.453 -0.619,-4.36 -1.877,-5.722c-1.258,-1.362 -3.012,-2.043 -5.263,-2.043c-1.521,-0 -2.874,0.325 -4.06,0.975c-1.185,0.651 -2.113,1.593 -2.784,2.827c-0.671,1.234 -1.009,2.726 -1.016,4.474Z" style="fill:#0b2641;fill-rule:nonzero;"/><path d="M685.121,211.352c-3.655,-0 -6.803,-0.765 -9.443,-2.294c-2.641,-1.53 -4.672,-3.695 -6.094,-6.497c-1.422,-2.801 -2.133,-6.102 -2.133,-9.902c-0,-3.738 0.712,-7.023 2.137,-9.856c1.426,-2.833 3.427,-5.043 6.004,-6.629c2.578,-1.586 5.603,-2.379 9.075,-2.379c2.234,0 4.351,0.36 6.349,1.08c1.998,0.719 3.767,1.826 5.308,3.321c1.54,1.495 2.751,3.399 3.631,5.713c0.881,2.313 1.321,5.066 1.321,8.257l0,2.633l-29.81,-0l-0,-5.777l21.591,0c-0.006,-1.647 -0.356,-3.114 -1.049,-4.398c-0.693,-1.285 -1.659,-2.297 -2.898,-3.035c-1.239,-0.739 -2.682,-1.108 -4.33,-1.108c-1.758,-0 -3.299,0.419 -4.623,1.257c-1.324,0.838 -2.352,1.94 -3.085,3.307c-0.732,1.367 -1.105,2.863 -1.117,4.489l-0,5.038c-0,2.114 0.384,3.925 1.153,5.433c0.768,1.507 1.847,2.661 3.236,3.461c1.389,0.8 3.019,1.2 4.891,1.2c1.24,0 2.368,-0.176 3.383,-0.528c1.015,-0.352 1.89,-0.877 2.625,-1.577c0.736,-0.699 1.296,-1.563 1.681,-2.592l8.012,0.909c-0.505,2.109 -1.467,3.948 -2.884,5.519c-1.417,1.57 -3.221,2.789 -5.412,3.655c-2.19,0.867 -4.697,1.3 -7.519,1.3Z" style="fill:#0b2641;fill-rule:nonzero;"/><path d="M707.829,210.632l0,-36.363l8.315,-0l0,6.06l0.379,0c0.663,-2.102 1.804,-3.726 3.423,-4.872c1.619,-1.146 3.471,-1.719 5.554,-1.719c0.473,0 1.007,0.022 1.6,0.066c0.594,0.045 1.089,0.108 1.487,0.19l0,7.87c-0.372,-0.117 -0.949,-0.229 -1.731,-0.335c-0.781,-0.105 -1.53,-0.158 -2.246,-0.158c-1.572,-0 -2.976,0.335 -4.212,1.006c-1.236,0.671 -2.209,1.599 -2.921,2.784c-0.712,1.185 -1.068,2.548 -1.068,4.089l0,21.382l-8.58,0Z" style="fill:#0b2641;fill-rule:nonzero;"/><path d="M733.758,211.163c-1.434,-0 -2.661,-0.509 -3.684,-1.525c-1.023,-1.017 -1.531,-2.245 -1.525,-3.684c-0.006,-1.421 0.502,-2.637 1.525,-3.651c1.023,-1.013 2.25,-1.519 3.684,-1.519c1.395,-0 2.61,0.506 3.646,1.519c1.035,1.014 1.556,2.23 1.562,3.651c-0.006,0.956 -0.25,1.829 -0.731,2.618c-0.482,0.79 -1.113,1.419 -1.894,1.887c-0.782,0.469 -1.643,0.704 -2.583,0.704Z" style="fill:#0b2641;fill-rule:nonzero;"/><g><path d="M213,265.295l-0,45c-0,8.279 -6.721,15 -15,15l-45,0c-8.279,0 -15,-6.721 -15,-15l-0,-45c-0,-8.278 6.721,-15 15,-15l45,0c8.279,0 15,6.722 15,15Z" style="fill:#d9bfa6;stroke:#d9bfa6;stroke-width:3.54px;"/><path d="M304.506,265.295l0,45c0,8.279 -6.721,15 -15,15l-45,0c-8.279,0 -15,-6.721 -15,-15l0,-45c0,-8.278 6.721,-15 15,-15l45,0c8.279,0 15,6.722 15,15Z" style="fill:#bfd9a6;stroke:#bfd9a6;stroke-width:3.54px;"/><path d="M396.012,265.295l0,45c0,8.279 -6.721,15 -15,15l-45,0c-8.278,0 -15,-6.721 -15,-15l0,-45c0,-8.278 6.722,-15 15,-15l45,0c8.279,0 15,6.722 15,15Z" style="fill:#a6d9bf;stroke:#a6d9bf;stroke-width:3.54px;"/><path d="M487.518,265.295l0,45c0,8.279 -6.721,15 -15,15l-45,0c-8.278,0 -15,-6.721 -15,-15l0,-45c0,-8.278 6.722,-15 15,-15l45,0c8.279,0 15,6.722 15,15Z" style="fill:#a6bfd9;stroke:#004d99;stroke-width:3.54px;"/><path d="M579.025,265.295l-0,45c-0,8.279 -6.722,15 -15,15l-45,0c-8.279,0 -15,-6.721 -15,-15l-0,-45c-0,-8.278 6.721,-15 15,-15l45,0c8.278,0 15,6.722 15,15Z" style="fill:#bfa6d9;stroke:#bfa6d9;stroke-width:3.54px;"/><path d="M670.531,265.295l-0,45c-0,8.279 -6.722,15 -15,15l-45,0c-8.279,0 -15,-6.721 -15,-15l-0,-45c-0,-8.278 6.721,-15 15,-15l45,0c8.278,0 15,6.722 15,15Z" style="fill:#d9a6bf;stroke:#d9a6bf;stroke-width:3.54px;"/></g></g></g></svg>