<?xml version="1.0" encoding="UTF-8" standalone="no"?><!DOCTYPE svg PUBLIC "-//W3C//DTD SVG 1.1//EN" "http://www.w3.org/Graphics/SVG/1.1/DTD/svg11.dtd"><svg width="100%" height="100%" viewBox="0 0 834 497" version="1.1" xmlns="http://www.w3.org/2000/svg" xmlns:xlink="http://www.w3.org/1999/xlink" xml:space="preserve" xmlns:serif="http://www.serif.com/" style="fill-rule:evenodd;clip-rule:evenodd;stroke-linejoin:round;stroke-miterlimit:2;"><g><path id="item" d="M107.089,217.571c9.419,-18.022 23.002,-33.094 39.306,-43.632c-1.477,-7.832 -2.253,-15.944 -2.253,-24.253c-0,-65.818 48.702,-119.253 108.689,-119.253c33.429,-0 63.353,16.594 83.298,42.677c19.937,-26.846 50.305,-44.004 84.297,-44.004c59.987,0 108.689,53.436 108.689,119.253c0,7.591 -0.647,15.017 -1.886,22.216c24.519,7.661 45.514,24.539 59.668,46.996l-479.808,-0Z" style="fill:#5faa64;"/><path id="item2" d="M532.731,217.571l153.852,-217.571l42.099,217.571l-195.951,-0Z" style="fill:#728db6;"/><path d="M829.844,226.952c5.712,-7.527 4.626,-12.105 -4.849,-13.044l-809.539,-0c-13.133,-2.015 -18.288,1.955 -13.952,13.044l119.505,268.198c0.396,1.152 1.156,1.808 2.612,1.52l582.612,-0c2.589,0.205 4.378,-0.648 4.864,-3.223l118.747,-266.495Z" style="fill:#ffdbb5;"/></g></svg>