<?xml version="1.0" encoding="UTF-8" standalone="no"?><!DOCTYPE svg PUBLIC "-//W3C//DTD SVG 1.1//EN" "http://www.w3.org/Graphics/SVG/1.1/DTD/svg11.dtd"><svg width="100%" height="100%" viewBox="0 0 12043 11635" version="1.1" xmlns="http://www.w3.org/2000/svg" xmlns:xlink="http://www.w3.org/1999/xlink" xml:space="preserve" xmlns:serif="http://www.serif.com/" style="fill-rule:evenodd;clip-rule:evenodd;stroke-linejoin:round;stroke-miterlimit:2;"><rect x="9826.49" y="2119.93" width="2083.33" height="2083.33" style="fill:#17825d;"/><rect x="8204.24" y="3876.93" width="2083.33" height="2083.33" style="fill:#082b1f;"/><rect x="8246.8" y="5241.79" width="2083.33" height="2083.33" style="fill:#17825d;"/><rect x="0" y="2159.64" width="2083.33" height="2083.33" style="fill:#082b1f;"/><rect x="7204.22" y="8927.4" width="2083.33" height="2083.33" style="fill:#f5fefb;"/><rect x="9749.68" y="6598.16" width="2083.33" height="2083.33" style="fill:#fa0;"/><rect x="8258.71" y="6770.2" width="2083.33" height="2083.33" style="fill:#082b1f;"/><rect x="3230.91" y="-0" width="2083.33" height="2083.33" style="fill:#17825d;"/><rect x="6175.38" y="533.333" width="2083.33" height="2083.33" style="fill:#17825d;"/><rect x="6175.38" y="8607.97" width="2083.33" height="2083.33" style="fill:#082b1f;"/><rect x="4570.52" y="8607.97" width="2083.33" height="2083.33" style="fill:#4055bf;"/><rect x="1421.7" y="9246.6" width="2083.33" height="2083.33" style="fill:#4055bf;"/><rect x="2872.71" y="8614.22" width="2083.33" height="2083.33" style="fill:#fa0;"/><rect x="167.904" y="9207.37" width="2083.33" height="2083.33" style="fill:#fa0;"/><rect x="3975.54" y="8050.4" width="2083.33" height="2083.33" style="fill:#082b1f;"/><rect x="7947.81" y="8853.54" width="2083.33" height="2083.33" style="fill:#fa0;"/><rect x="9418.34" y="3632.52" width="2083.33" height="2083.33" style="fill:#fa0;"/><rect x="8072.06" y="2169.3" width="2083.33" height="2083.33" style="fill:#fa0;"/><rect x="5551.1" y="7495.75" width="2083.33" height="2083.33" style="fill:#17825d;"/><rect x="8918.55" y="8393.16" width="2083.33" height="2083.33" style="fill:#17825d;"/><rect x="2362.18" y="6524.64" width="2083.33" height="2083.33" style="fill:#082b1f;"/><rect x="4930.13" y="4640.16" width="2083.33" height="2083.33" style="fill:#fa0;"/><rect x="9826.49" y="414.319" width="2083.33" height="2083.33" style="fill:#17825d;"/><rect x="6653.85" y="4870.47" width="2083.33" height="2083.33" style="fill:#4055bf;"/><rect x="7957.68" y="309.744" width="2083.33" height="2083.33" style="fill:#4055bf;"/><rect x="9530.89" y="9551.13" width="2083.33" height="2083.33" style="fill:#4055bf;"/><rect x="1588.04" y="2128.81" width="2083.33" height="2083.33" style="fill:#4055bf;"/><rect x="4092.04" y="6524.64" width="2083.33" height="2083.33" style="fill:#4055bf;"/><rect x="1320.52" y="728.806" width="2083.33" height="2083.33" style="fill:#fa0;"/><rect x="6714.98" y="1850.69" width="2083.33" height="2083.33" style="fill:#fa0;"/><rect x="7137.18" y="6953.81" width="2083.33" height="2083.33" style="fill:#082b1f;"/><rect x="526.487" y="7542.92" width="2083.33" height="2083.33" style="fill:#082b1f;"/><rect x="2970.52" y="4870.47" width="2083.33" height="2083.33" style="fill:#fa0;"/><rect x="278.849" y="208.022" width="2083.33" height="2083.33" style="fill:#fa0;"/><rect x="5053.85" y="703.806" width="2083.33" height="2083.33" style="fill:#082b1f;"/><rect x="2362.18" y="3828.81" width="2083.33" height="2083.33" style="fill:#082b1f;"/><rect x="5345.52" y="6524.64" width="2083.33" height="2083.33" style="fill:#082b1f;"/><rect x="3467.77" y="2787.14" width="2083.33" height="2083.33" style="fill:#17825d;"/><rect x="388.378" y="3948.01" width="2083.33" height="2083.33" style="fill:#17825d;"/><rect x="1320.52" y="8096.12" width="2083.33" height="2083.33" style="fill:#fa0;"/><rect x="6874.68" y="3399.64" width="2083.33" height="2083.33" style="fill:#17825d;"/><rect x="9958.84" y="4880.31" width="2083.33" height="2083.33" style="fill:#17825d;"/><rect x="3262.18" y="991.306" width="2083.33" height="2083.33" style="fill:#082b1f;"/><rect x="4788.47" y="2147.14" width="2083.33" height="2083.33" style="fill:#17825d;"/><rect x="1315.92" y="5183.98" width="2083.33" height="2083.33" style="fill:#17825d;"/><rect x="373.455" y="5850.53" width="2083.33" height="2083.33" style="fill:#4055bf;"/><rect x="5480.93" y="3188.81" width="2083.33" height="2083.33" style="fill:#fa0;"/></svg>