<?xml version="1.0" encoding="UTF-8" standalone="no"?><!DOCTYPE svg PUBLIC "-//W3C//DTD SVG 1.1//EN" "http://www.w3.org/Graphics/SVG/1.1/DTD/svg11.dtd"><svg width="100%" height="100%" viewBox="0 0 1042 1042" version="1.1" xmlns="http://www.w3.org/2000/svg" xmlns:xlink="http://www.w3.org/1999/xlink" xml:space="preserve" xmlns:serif="http://www.serif.com/" style="fill-rule:evenodd;clip-rule:evenodd;stroke-linejoin:round;stroke-miterlimit:2;"><g><g><path d="M162.423,57.569c-0,-6.34 -5.148,-11.487 -11.488,-11.487l-22.975,-0c-6.34,-0 -11.487,5.147 -11.487,11.487l-0,972.61c-0,6.34 5.147,11.488 11.487,11.488l22.975,-0c6.34,-0 11.488,-5.148 11.488,-11.488l-0,-972.61Z" style="fill:#f96e6e;"/><path d="M925.194,72.733c-0,-14.709 -11.942,-26.651 -26.651,-26.651c-236.71,-57.276 -470.606,-65.473 -700.279,-0c-14.709,-0 -26.651,11.942 -26.651,26.651l-0,479.719c-0,14.709 11.942,26.651 26.651,26.651c236.079,-56.821 469.318,-52.812 700.279,-0c14.709,-0 26.651,-11.942 26.651,-26.651l-0,-479.719Z" style="fill:#f96e6e;"/></g><rect x="0" y="0" width="1041.67" height="1041.67" style="fill:#b4b4b4;fill-opacity:0;"/></g></svg>