<?xml version="1.0" encoding="UTF-8" standalone="no"?><!DOCTYPE svg PUBLIC "-//W3C//DTD SVG 1.1//EN" "http://www.w3.org/Graphics/SVG/1.1/DTD/svg11.dtd"><svg width="100%" height="100%" viewBox="0 0 2085 2087" version="1.1" xmlns="http://www.w3.org/2000/svg" xmlns:xlink="http://www.w3.org/1999/xlink" xml:space="preserve" xmlns:serif="http://www.serif.com/" style="fill-rule:evenodd;clip-rule:evenodd;stroke-linecap:round;stroke-linejoin:round;stroke-miterlimit:1.5;"><circle cx="1042.96" cy="1041.67" r="1041.67" style="fill:#d94141;"/><path d="M318.11,1787.38c2.479,-5.342 4.255,-10.837 5.13,-16.532c12.03,-78.332 -38.771,-169.767 -54.686,-245.532c-35.705,-169.978 -61.163,-365.155 8.524,-529.452c3.08,-7.262 6.189,-14.513 9.44,-21.7c24.081,-53.247 9.432,17.916 17.903,41.314c10.104,27.91 75.65,83.4 108.322,49.794c18.095,-18.613 7.245,-67.739 10.715,-90.508c10.117,-66.397 81.4,-161.675 43.28,-228.214c-37.646,-65.711 -145.037,-121.494 -104.855,-212.801c4.118,-9.357 9.154,-16.811 14.902,-25.092c20.915,-30.125 11.664,8.129 21.851,41.795c11.881,39.266 40.861,77.403 70.729,104.54c6.31,5.734 55.507,46.098 70.638,31.485c32.245,-31.14 83.237,-222.502 62.37,-269.243c-1.616,-3.619 -2.401,15.609 -2.401,11.645c-0,-65.119 6.27,-133.69 -3.197,-198.139c-7.688,-52.338 -39.496,-67.378 -60.942,-97.781c9.711,-5.459 19.519,-10.766 29.419,-15.919c1.713,2.906 3.452,5.794 5.216,8.665c85.013,138.402 216.553,222.122 342.778,317.491c44.532,33.646 54.206,73.326 54.206,128.251l-0,37.758c-0,7.494 -2.53,29.513 0.06,22.481c21.627,-58.741 50.982,-109.424 65.086,-172.522c4.814,-21.539 13.235,-72.302 16.072,-95.641c3.703,-30.458 4.35,-60.58 4.232,-91.183c-0.043,-11.364 -0.024,-21.64 -2.655,-32.259c18.063,38.885 70.37,87.571 75.35,131.306c2.707,23.777 -17.288,83.185 -11.076,92.159c6.415,9.265 13.759,-17.852 20.545,-26.848c10.801,-14.319 21.13,-28.988 31.905,-43.326c40.122,-53.385 97.237,-137.095 163.008,-164.088c3.401,-1.395 -2.535,6.909 -4.067,10.25c-5.818,12.694 -12.213,25.117 -18.114,37.773c-14.5,31.102 -24.337,61.934 -22.075,96.766c3.691,56.838 105.755,64.225 89.382,148.976c-15.524,80.362 -38.465,145.921 -33.646,228.694c0.356,6.099 -4.471,61.751 0.706,64.921c10.23,6.263 15.526,-18.304 22.766,-27.868c21.551,-28.471 22.596,-31.085 45.816,-67.608c44.81,-70.478 77.051,-146.316 84.596,-230.224c0.609,-6.78 1.571,-15.981 2.155,-26.224c0.512,1.929 1.066,4.03 1.672,6.339c12.243,46.685 21.852,94.111 25.076,142.373c9.823,147.039 -73.737,191.588 24.807,331.133c9.886,13.999 33.038,59.328 52.015,64.815c8.595,2.486 -0.269,-17.895 -0.69,-26.832c-0.996,-21.092 -0.676,-19.834 -0.676,-43.701c0,-57.466 15.378,-118.997 8.629,-175.734c-0.642,-5.404 -28.77,-68.139 -26.487,-69.588c14.219,-9.022 72.874,67.987 80.363,78.367c38.91,53.933 79.966,119.521 85.256,187.755c2.81,36.251 -59.088,190.601 -4.172,215.412c3.323,1.502 12.539,-37.284 13.491,-40.144c13.203,-39.644 20.166,-78.786 25.167,-120.267c0.354,-2.937 4.463,-58.821 10.25,-56.517c6.607,2.63 5.174,34.561 5.252,38.133c0.818,37.205 1.278,72.51 18.054,106.701c16.415,33.455 43.905,60.272 50.109,98.477c11.226,69.139 -18.997,133.831 -13.402,200.585c7.426,88.586 24.298,176.363 25.657,265.196c-190.149,252.619 -492.504,416.091 -832.739,416.091c-282.706,0 -539.259,-112.864 -727.02,-295.954Zm1179.39,-1322.64c-5.485,-20.669 -6.123,-21.46 -13.456,-44.955c-3.68,-11.793 -18.336,-42.891 -7.953,-36.197c21.657,13.963 23.082,51.824 21.409,81.152Zm-447.251,-224.659c-3.808,-8.198 -6.094,-15.96 -6.094,-23.148c0,-5.986 2.486,11.741 4.412,17.409c0.656,1.929 1.211,3.839 1.682,5.739Z" style="fill:#ff851b;"/><path d="M430.215,1883.21c2.106,-3.678 7.782,-7.461 8.526,-11.382c10.22,-53.931 -32.941,-116.885 -46.463,-169.049c-30.336,-117.03 -51.965,-251.409 7.242,-364.528c2.617,-5 5.258,-9.992 8.02,-14.94c20.461,-36.661 8.014,12.335 15.211,28.445c8.585,19.215 64.275,57.42 92.033,34.283c15.374,-12.816 6.156,-46.639 9.104,-62.315c8.596,-45.715 69.16,-111.313 36.772,-157.125c-31.985,-45.243 -123.227,-83.649 -89.087,-146.514c3.498,-6.442 7.777,-11.575 12.661,-17.276c17.769,-20.741 9.909,5.597 18.565,28.776c10.094,27.035 34.716,53.292 60.092,71.976c5.362,3.947 47.161,31.738 60.017,21.677c27.395,-21.44 70.719,-153.192 52.99,-185.374c-1.372,-2.492 -2.04,10.747 -2.04,8.018c0,-44.835 5.328,-92.046 -2.715,-136.419c-6.532,-36.034 -33.557,-46.39 -51.778,-67.322c8.251,-3.759 16.583,-7.413 24.995,-10.961c1.455,2.001 2.933,3.99 4.431,5.966c72.23,95.29 183.989,152.932 291.233,218.593c37.835,23.165 46.054,50.485 46.054,88.301l0,25.996c0,5.16 -2.149,20.32 0.051,15.478c18.375,-40.443 43.316,-75.338 55.299,-118.781c4.09,-14.83 11.245,-49.78 13.655,-65.849c3.146,-20.971 3.696,-41.709 3.596,-62.78c-0.037,-7.823 -0.02,-14.899 -2.256,-22.21c15.347,26.772 59.788,60.293 64.019,90.404c2.301,16.371 -14.688,57.273 -9.41,63.452c5.45,6.379 11.69,-12.291 17.456,-18.485c9.176,-9.858 17.952,-19.958 27.107,-29.83c34.089,-36.755 82.615,-94.39 138.495,-112.974c2.889,-0.961 -2.154,4.756 -3.455,7.057c-4.943,8.74 -10.377,17.293 -15.39,26.007c-12.32,21.413 -20.678,42.641 -18.756,66.623c3.136,39.133 89.852,44.219 75.942,102.57c-13.191,55.329 -32.682,100.466 -28.587,157.456c0.302,4.199 -3.799,42.515 0.599,44.698c8.692,4.312 13.192,-12.603 19.343,-19.188c18.31,-19.602 19.198,-21.401 38.927,-46.547c38.071,-48.525 65.464,-100.739 71.874,-158.51c0.518,-4.667 1.335,-11.003 1.831,-18.055c0.435,1.328 0.906,2.775 1.42,4.365c10.403,32.142 18.567,64.795 21.306,98.023c8.346,101.237 -62.649,131.909 21.077,227.985c8.399,9.639 28.069,40.848 44.193,44.626c7.302,1.711 -0.228,-12.321 -0.587,-18.474c-0.845,-14.522 -0.573,-13.656 -0.573,-30.088c-0,-39.565 13.065,-81.93 7.331,-120.993c-0.546,-3.721 -24.444,-46.914 -22.504,-47.911c12.08,-6.212 61.915,46.809 68.278,53.955c33.059,37.133 67.941,82.29 72.435,129.269c2.388,24.959 -50.202,131.229 -3.544,148.312c2.823,1.034 10.653,-25.67 11.462,-27.639c11.218,-27.296 17.134,-54.244 21.383,-82.804c0.301,-2.023 3.791,-40.498 8.708,-38.912c5.614,1.811 4.396,23.795 4.463,26.254c0.695,25.616 1.085,49.923 15.339,73.464c13.946,23.034 37.303,41.497 42.573,67.801c9.538,47.603 -16.14,92.143 -11.386,138.104c6.309,60.991 20.644,121.426 21.798,182.587c-161.555,173.928 -418.443,286.479 -707.514,286.479c-203.52,-0 -390.258,-56.665 -540.663,-149.509c-27.227,-16.807 -57.358,-34.854 -81.198,-54.256Zm1006.2,-910.638c-4.66,-14.23 -5.202,-14.775 -11.432,-30.951c-3.127,-8.12 -15.579,-29.531 -6.758,-24.922c18.401,9.614 19.611,35.681 18.19,55.873Zm-379.995,-154.678c-3.235,-5.644 -5.177,-10.988 -5.177,-15.937c-0,-4.121 2.111,8.083 3.748,11.986c0.557,1.328 1.029,2.643 1.429,3.951Z" style="fill:#fffb26;"/><path d="M2.385,1067.37c-6.153,-256.396 81.68,-515.546 266.499,-721.142c167.531,-186.366 387.277,-298.162 617.297,-333.157c217.899,317.477 235.8,705.462 17.341,948.48c-209.094,232.601 -573.223,263.99 -901.137,105.819Z" style="stroke:#000;stroke-width:4.17px;"/><path d="M1547.79,1513.44c-166.037,184.703 -450.794,199.858 -635.497,33.821c-184.703,-166.037 -199.858,-450.794 -33.821,-635.497c166.038,-184.703 450.794,-199.858 635.497,-33.821c184.703,166.037 199.858,450.794 33.821,635.497Z" style="fill:#fff;"/><path d="M1276.01,1251.47c-88.4,98.338 -219.873,124.504 -293.413,58.397c-73.539,-66.107 -61.474,-199.616 26.925,-297.953c88.399,-98.337 219.873,-124.504 293.412,-58.397c73.539,66.108 61.475,199.616 -26.924,297.953Z"/><path d="M1476.07,1180.46c-1.277,-1.147 0.203,3.249 0.304,4.873c0.363,5.827 -4.414,8.439 -9.53,7c-16.23,-4.567 -8.202,-25.191 4.368,-25.821c24.692,-1.237 26.453,42.379 9.206,49.136c-7.969,3.122 -41.718,-31.282 -43.308,-39.526c-5.594,-29.001 58.049,-40.838 70.098,-8.563c9.326,24.979 -14.828,75.361 -41.265,78.857c-23.045,3.048 -53.845,-19.079 -68.014,-37.281c-42.606,-54.731 74.831,-115.729 118.757,-83.433c47.527,34.943 21.392,99.847 -7.13,131.575c-12.079,13.437 -47.888,25.3 -66.423,8.639" style="fill:none;stroke:#000;stroke-width:2.59px;"/><path d="M1240.99,1433.14c9.883,8.885 -1.806,17.866 -11.96,13.736c-1.808,-0.736 -7.033,-2.491 -6.804,-5.252c2.015,-24.256 44.293,-16.183 33.843,8.302c-7.468,17.501 -48.579,24.978 -51.539,0.611c-1.664,-13.697 10.304,-37.642 24.222,-41.37c20.569,-5.508 40.419,12.147 40.213,32.399c-0.359,35.226 -46.66,48.044 -74.184,39.849c-13.554,-4.035 -31.688,-11.147 -33.166,-27.586c-1.219,-13.548 7.099,-24.824 15.396,-34.623c23.25,-27.459 87.654,-49.633 106.935,-5.794c3.873,8.806 4.67,21.127 4.032,30.603c-3.181,47.238 -65.512,68.482 -105.517,57.389c-27.016,-7.492 -45.293,-35.402 -38.384,-62.239c3.607,-14.007 14.157,-26.064 23.291,-36.701c15.973,-18.601 43.621,-37.182 69.658,-34.476c13.19,1.371 24.26,9.957 34.137,18.131c30.545,25.273 52.972,70.453 47.565,111.109c-3.127,23.515 -32.682,31.554 -51.533,35.263c-44.238,8.705 -91.286,7.756 -133.817,-7.829c-17.964,-6.583 -39.001,-19.107 -39.231,-40.441c-0.186,-17.17 8.201,-33.006 18.218,-46.382c18.276,-24.403 42.265,-41.623 69.57,-55.002c24.073,-11.796 49.698,-20.884 75.763,-8.907c31.405,14.431 43.419,43.65 44.729,76.581c0.446,11.207 1.38,31.647 -7.084,41.062" style="fill:none;stroke:#000;stroke-width:2.08px;"/><path d="M1586.87,153.11c53.514,32.764 104.8,70.849 153.128,114.293c98.643,88.674 176.395,191.976 232.924,303.688l-735.005,407.536l348.953,-825.517Z" style="fill:#3d3d3d;"/><path d="M1877.48,462.368c2.296,-2.554 -0.44,6.859 -0.471,10.294c-0.063,6.964 2.242,15.856 -2.024,21.943c-8.64,12.329 -23.259,6.727 -33.546,15.759c-7.179,6.303 -6.192,21.399 -16.322,23.641c-15.671,3.469 -31.97,-3.162 -46.578,5.842c-11.098,6.841 -3.333,21.497 -14.098,30.176c-7.961,6.418 -18.897,5.501 -27.337,11.48c-13.745,9.738 -8.069,24.66 -17.902,36.636c-9.705,11.82 -21.276,11.428 -32.562,20.187c-9.682,7.515 -5.574,15.693 -11.323,24.232c-5.621,8.35 -16.108,7.139 -22.705,14.479" style="fill:none;stroke:#fff;stroke-width:4.17px;"/><path d="M1804.17,390.508c2.179,1.958 3.572,3.825 4.853,6.494c0.768,1.6 1.726,3.729 2.276,5.435c5.601,17.378 -20.249,7.348 -25.779,15.706c-2.209,3.338 3.17,9.266 3.636,12.813c0.723,5.501 -6.39,5.415 -9.603,7.522c-2.033,1.333 1.263,5.77 -0.387,6.182c-4.243,1.057 -9.312,-1.921 -12.123,3.195c-1.544,2.81 1.137,6.337 -0.708,9.25c-1.783,2.815 -7.879,-0.309 -9.04,3.621c-0.521,1.763 2.332,4.644 1.588,5.61c-0.864,1.122 -2.835,0.146 -4.23,0.392c-5.422,0.955 -8.175,1.784 -13.862,3.564c-13.003,4.068 -27.73,9.513 -37.036,20.001c-3.602,4.058 -4.077,8.75 -1.136,13.336c0.526,0.821 4.995,5.445 4.218,7.016c-0.489,0.988 -2.182,0.35 -3.284,0.395c-3.655,0.151 -7.198,0.87 -10.355,2.816c-4.827,2.974 -7.498,6.845 -8.673,12.245c-0.473,2.172 -1.653,3.582 -2.188,5.595c-0.174,0.654 0.405,2.292 -0.215,2.02c-11.772,-5.182 -19.392,-3.325 -28.565,6.76c-9.33,10.259 -2.212,22.065 -7.242,32.994c-1.39,3.022 -5.962,3.13 -7.397,6.377c-0.657,1.488 -2.981,9.343 -3.551,8.784c-0.35,-0.344 0.296,0.936 0.399,1.415c0.288,1.343 0.417,2.549 -0.867,3.414c-5.635,3.799 -11.048,-0.587 -16.402,5.588c-3.737,4.309 -1.944,9.037 -2.499,14.101c-0.445,4.064 -5.845,0.348 -7.743,3.063c-0.258,0.369 -2.942,4.325 -3.007,4.591c-0.729,2.952 2.727,4.491 0.542,6.922" style="fill:none;stroke:#fff;stroke-width:4.17px;"/><path d="M1586.38,656.403c-2.615,13.698 2.241,33.041 -13.978,40.592c-6.424,2.991 -15.579,0.829 -21.143,5.905c-3.028,2.761 0.835,7.305 -0.662,10.531c-1.817,3.913 -7.369,3.588 -9.436,7.395c-2.04,3.757 1.45,7.134 0.651,10.784c-0.252,1.152 -7.867,-0.053 -8.717,0.157c-3.973,0.985 -0.22,5.24 -1.572,7.578c-1.719,2.97 -6.683,1.053 -8.83,3.322c-5.422,5.729 -2.596,15.048 -7.902,21.042c-3.486,3.937 -9.232,-0.857 -13.351,1.799c-3.715,2.397 -0.284,7.71 -1.308,11.034c-0.702,2.279 -5.521,5.272 -7.064,7.901" style="fill:none;stroke:#fff;stroke-width:4.17px;"/><path d="M1742.6,352.707c-2.889,1.424 -6.995,6.494 -9.234,8.542c-7.388,6.754 -14.758,12.332 -12.536,23.219c1.007,4.934 3.522,9.14 6.38,13.188c0.001,0.001 2.502,2.999 2.202,3.605c-0.436,0.885 -1.521,-1.488 -2.503,-1.579c-2.139,-0.198 -4.298,-0.208 -6.444,-0.11c-4.643,0.211 -10.745,0.48 -14.918,3.082c-3.305,2.06 -1.379,7.775 -3.164,10.915c-1.565,2.751 -5.578,2.463 -7.079,4.851c-1.525,2.426 -0.168,5.67 -1.876,8.263c-2.592,3.937 -8.387,4.611 -11.625,8.213" style="fill:none;stroke:#fff;stroke-width:4.17px;"/><path d="M1653.99,460.957c-0.016,1.365 1.492,2.309 1.979,3.584c2.001,5.239 2.634,14.785 -2.483,18.612c-4.811,3.598 -13.084,1.762 -18.562,1.783c-0.851,0.004 -7.088,-0.652 -7.206,1.358c-0.366,6.231 11.227,11.289 13.473,16.975c0.538,1.364 -7.436,8.488 -8.205,10.923c-1.31,4.15 0.08,11.002 -3.529,14.085c-1.842,1.574 -4.713,0.381 -6.535,2.425c-2.132,2.392 0.914,5.693 -0.944,8.001c-1.316,1.634 -5.52,-2.12 -7.503,0.037c-1.618,1.758 1.315,5.989 -0.752,7.036c-2.178,1.103 -4.631,-0.426 -7.17,1.123" style="fill:none;stroke:#fff;stroke-width:4.17px;"/><path d="M1561.5,593.169c2.316,6.499 0.018,14.739 -2.215,20.881c-5.188,14.275 -15.244,26.347 -26.074,36.755c-4.577,4.399 -11.689,7.094 -15.202,12.544c-1.402,2.174 -0.118,5.175 -0.037,7.76c0.188,6.025 -0.382,12.206 -2.595,17.862c-3.779,9.658 -15.116,15.318 -21.608,23.092c-1.186,1.421 -4.91,3.504 -5.31,5.169c-1.115,4.64 3.436,8.775 2.959,13.058c-0.271,2.433 -7.132,0.128 -8.229,3.509c-1.295,3.991 2.625,8.059 1.246,12.245c-1.154,3.501 -7.613,3.725 -10.373,5.268c-1.67,0.934 -2.154,2.883 -1.977,4.65c0.139,1.392 -2.77,-0.567 -4.169,-0.507c-2.194,0.096 -4.427,0.445 -6.462,1.315c-5.825,2.49 -11.384,6.999 -14.678,12.499c-2.037,3.401 -1.507,7.659 -3.114,11.227c-1.366,3.035 -4.101,5.029 -5.048,8.318c-1.873,6.51 0.582,9.305 -4.216,14.643" style="fill:none;stroke:#fff;stroke-width:4.17px;"/><path d="M1644.57,289.244c0.109,21.46 10.572,53.49 -7.834,71.632c-6.547,6.453 -15.827,7.45 -23.911,10.927c-0.901,0.388 -4.064,1.717 -4.104,3.124c-0.006,0.216 1.261,1.893 0.379,1.899c-1.826,0.012 -10.176,-3.371 -11.055,-1.27c-0.654,1.56 2.21,2.571 3.456,3.715c1.924,1.765 6.694,4.619 7.752,7.105c0.668,1.57 -3.176,1.246 -4.765,1.866c-1.787,0.698 -3.509,1.742 -4.891,3.08c-4.553,4.406 -3.115,11.704 -7.452,15.938c-4.043,3.948 -11.134,0.478 -15.325,4.088c-1.749,1.507 -0.695,3.951 0.208,5.602c0.139,0.255 -0.622,0.268 -0.674,0.554c-0.305,1.699 -0.241,4.457 -0.125,6.089c0.371,5.235 3.125,13.811 -0.998,18.398" style="fill:none;stroke:#fff;stroke-width:4.17px;"/><path d="M1547.62,471.436c1.911,2.354 1.863,2.189 3.296,4.823c1.578,2.903 -0.72,6.171 -3.313,7.647c-4.49,2.555 -14.571,4.073 -14.956,10.914c-0.229,4.067 3.518,7.248 3.514,11.128c-0.002,2.261 -2.119,4.822 -2.459,7.198c-1.148,8.012 -2.274,14.563 -7.382,21.33c-1.016,1.347 -2.196,8.734 -5.184,6.048" style="fill:none;stroke:#fff;stroke-width:4.17px;"/><path d="M1520.95,583.503c0.587,0.528 -1.321,-0.876 -2.026,-1.231c-3.959,-1.996 -4.038,-1.689 -8.501,-3.203c-9.703,-3.291 -19.598,-7.123 -29.092,-10.843" style="fill:none;stroke:#fff;stroke-width:4.17px;"/><path d="M1510.81,597.921c0.916,0.823 -1.917,-1.563 -2.978,-2.189c-0.941,-0.554 -1.916,-1.054 -2.91,-1.509c-3.679,-1.686 -5.738,-2.297 -9.632,-3.749c-8.612,-3.211 -17.401,-6.181 -26.374,-8.186" style="fill:none;stroke:#fff;stroke-width:4.17px;"/><path d="M1515.9,571.306c-11.615,9.786 -20.554,20.404 -30.542,31.515" style="fill:none;stroke:#fff;stroke-width:4.17px;"/><path d="M1503.81,564.256c-3.745,1.4 -7.913,8.45 -10.912,11.076c-7.254,6.351 -19.429,14.062 -22.389,24.269" style="fill:none;stroke:#fff;stroke-width:4.17px;"/><path d="M1472.68,608.663c0.971,0.873 1.942,1.746 2.913,2.619c1.082,0.972 2.198,1.906 3.244,2.916c1.725,1.665 0.976,3.652 -0.801,5.064c-3.505,2.785 -11.447,0.463 -11.993,6.828c-0.449,5.242 6.519,13.373 4.144,17.843c-1.96,3.689 -12.093,-2.879 -14.509,2.162c-1.052,2.194 1.466,4.618 1.071,6.919c-0.382,2.228 -3.176,2.075 -4.1,3.763c-2.895,5.293 2.298,9.033 -5.305,11.84" style="fill:none;stroke:#fff;stroke-width:4.17px;"/><path d="M1434.57,682.824c5.672,7.03 12.069,22.478 6.601,31.257c-5.655,9.081 -18.207,9.279 -25.462,17.017c-1.296,1.381 -3.187,6.569 -0.913,8.075c0.337,0.223 0.076,-1.548 0.09,-1.546c2.405,0.447 3.484,5.392 2.731,7.194c-2.549,6.102 -12.882,5.178 -16.432,11.042c-1.857,3.067 0.231,6.572 -1.198,9.743c-1.893,4.196 -7.289,8.164 -7.429,13.28c-0.065,2.359 2.6,5.156 2.039,7.252c-0.452,1.691 -3.357,0.589 -3.891,2.235c-1.023,3.158 0.138,6.547 -0.951,9.645c-1.411,4.012 -11.879,9.859 -6.415,15.176" style="fill:none;stroke:#fff;stroke-width:4.17px;"/></svg>