<svg viewBox="0 0 2065 1939" version="1.1" xmlns="http://www.w3.org/2000/svg" xmlns:xlink="http://www.w3.org/1999/xlink" xml:space="preserve" xmlns:serif="http://www.serif.com/" style="fill-rule:evenodd;clip-rule:evenodd;stroke-linecap:round;stroke-linejoin:round;stroke-miterlimit:1.5;"><g><path d="M701.102,244.857c580.594,-393.759 782.239,-203.878 1131.73,241.28c396.898,505.543 273.783,472.822 -288.297,891.375c-562.08,418.554 -958.705,838.553 -1342.57,323.055c-383.867,-515.499 -80.834,-1062.37 499.139,-1455.71Z" style="fill:#d9f2ea;"/><g><path d="M258.664,237.97l-46.027,211.183l-138.771,-91.46l187.944,-134.158l-3.146,14.435" style="fill:none;stroke:#082b1f;stroke-width:55.93px;"/><path d="M797.655,30.786c123.781,-0.57 249.438,28.774 366.111,91.313c374.286,200.625 515.278,667.38 314.653,1041.67c-200.624,374.286 -667.38,515.278 -1041.67,314.653c-374.287,-200.624 -515.279,-667.38 -314.654,-1041.67c4.523,-8.439 9.182,-16.759 13.972,-24.959c0.081,0.034 0.162,0.068 0.244,0.102" style="fill:none;stroke:#082b1f;stroke-width:61.56px;"/><g><g><circle cx="800.259" cy="800.259" r="61.555" style="stroke:#082b1f;stroke-width:61.56px;"/><path d="M806.415,794.104l-0,-486.287" style="fill:none;stroke:#082b1f;stroke-width:61.56px;"/><path d="M806.415,794.104l184.284,-158.612" style="fill:none;stroke:#082b1f;stroke-width:61.56px;"/></g><circle cx="800.259" cy="800.259" r="615.552" style="fill:none;stroke:#082b1f;stroke-width:61.56px;"/></g></g></g></svg>