<?xml version="1.0" encoding="UTF-8" standalone="no"?><!DOCTYPE svg PUBLIC "-//W3C//DTD SVG 1.1//EN" "http://www.w3.org/Graphics/SVG/1.1/DTD/svg11.dtd"><svg width="100%" height="100%" viewBox="0 0 2500 2030" version="1.1" xmlns="http://www.w3.org/2000/svg" xmlns:xlink="http://www.w3.org/1999/xlink" xml:space="preserve" xmlns:serif="http://www.serif.com/" style="fill-rule:evenodd;clip-rule:evenodd;stroke-linecap:round;stroke-linejoin:round;stroke-miterlimit:1.5;"><rect id="calendar" x="-0" y="0" width="2500" height="2029.17" style="fill:none;"/><g id="calendar1" serif:id="calendar"><g id="calendar2" serif:id="calendar"><path d="M1971.55,521.63c281.879,342.957 74.69,586.052 -392.81,1051.43c-530.916,528.511 -482.137,411.673 -789.913,93.83c-307.777,-317.843 -641.384,-494.811 -103.099,-1016.05c538.286,-521.238 1004.25,-471.807 1285.82,-129.216Z" style="fill:#d9f2ea;"/><path d="M1907.64,281.653c0,-11.063 -8.982,-20.045 -20.045,-20.045l-1275.18,0c-11.063,0 -20.045,8.982 -20.045,20.045l-0,360.806c-0,11.063 8.982,20.045 20.045,20.045l1275.18,0c11.063,0 20.045,-8.982 20.045,-20.045l0,-360.806Z" style="fill:#082b1f;stroke:#082b1f;stroke-width:62.5px;"/><path d="M1907.64,658.223c0,-25.233 -20.486,-45.719 -45.719,-45.719l-1223.84,0c-25.233,0 -45.719,20.486 -45.719,45.719l-0,822.941c-0,25.233 20.486,45.719 45.719,45.719l1223.84,-0c25.233,-0 45.719,-20.486 45.719,-45.719l0,-822.941Z" style="fill:none;stroke:#082b1f;stroke-width:62.5px;"/><path d="M939.583,919.245l620.834,0" style="fill:none;stroke:#082b1f;stroke-width:41.67px;"/><path d="M939.583,1135.91l620.834,-0" style="fill:none;stroke:#082b1f;stroke-width:41.67px;"/></g></g></svg>