<svg viewBox="0 0 1829 1635" version="1.1" xmlns="http://www.w3.org/2000/svg" xmlns:xlink="http://www.w3.org/1999/xlink" xml:space="preserve" xmlns:serif="http://www.serif.com/">
	<g>
		<path class="logo-background-blob" d="M1697.77,1211.12c-256.116,398.596 -782.091,526.164 -1123.69,339.053c-387.937,-212.492 -130.027,-519.857 107.659,-929.124c237.686,-409.267 371.159,-776.094 753.655,-553.956c382.495,222.139 518.218,745.857 262.377,1144.03Z"/>

		<path class="logo-foreground-blob" d="M1033.82,163.484c570.616,25.404 609.96,249.305 621.717,713.79c13.351,527.49 -51.135,445.577 -621.717,445.577c-570.581,0 -1033.82,82.078 -1033.82,-445.577c0,-527.656 463.817,-739.167 1033.82,-713.79Z"/>

		<g class="logo-text">

			<path class="logo-H" d="M132.644,969.271l0,-14.342l49.084,-3.188l-0,-419.761l-49.084,-3.187l0,-14.343l179.761,0l0,14.343l-49.084,3.187l0,194.423l171.474,-2.55l0,-191.873l-49.083,-3.187l-0,-14.343l179.761,0l-0,14.343l-49.084,3.187l0,419.761l49.084,3.188l-0,14.342l-179.761,0l-0,-14.342l49.083,-3.188l0,-206.215l-171.474,0l0,206.215l49.084,3.188l0,14.342l-179.761,0Z"/>

			<path class="logo-E" d="M605.632,809.271c0,-16.574 1.594,-32.775 4.781,-48.605c3.187,-15.83 8.393,-31.076 15.618,-45.737c7.224,-14.662 16.042,-27.517 26.454,-38.566c10.411,-11.049 23.32,-19.921 38.725,-26.614c15.405,-6.693 32.457,-10.04 51.155,-10.04c17.636,0 33.466,2.497 47.49,7.49c14.024,4.994 25.711,11.953 35.06,20.877c9.349,8.924 17.105,19.814 23.267,32.669c6.162,12.856 10.571,26.773 13.227,41.753c2.656,14.98 3.984,31.395 3.984,49.243l-8.606,7.968l-169.561,0l-0,19.443c-0,92.642 26.348,138.964 79.044,138.964c37.397,-0 67.251,-18.699 89.561,-56.096l12.431,7.65c-27.411,46.108 -66.401,69.163 -116.973,69.163c-48.871,-0 -85.365,-15.086 -109.482,-45.259c-24.116,-30.173 -36.175,-71.607 -36.175,-124.303Zm81.594,-23.904l102.948,-4.144c0.637,-10.836 0.956,-21.248 0.956,-31.235c0,-30.81 -3.665,-54.502 -10.996,-71.075c-7.331,-16.574 -19.495,-24.861 -36.494,-24.861c-10.199,0 -18.964,3.347 -26.295,10.04c-7.33,6.693 -13.014,16.308 -17.052,28.845c-4.037,12.536 -7.065,26.188 -9.083,40.956c-2.019,14.767 -3.347,31.925 -3.984,51.474Z"/>

			<path class="logo-L" d="M905.871,539.63l0,-13.068l66.614,-7.012l44.94,-11.793l5.737,9.243l-0,436.016l32.829,3.187l-0,13.068l-143.745,0l-0,-13.068l32.828,-3.187l0,-413.386l-39.203,-0Z"/>

			<path class="logo-F" d="M1086.59,662.976l0,-13.705l46.853,0c0.212,-18.698 1.912,-35.591 5.099,-50.677c3.188,-15.086 7.119,-27.464 11.793,-37.132c4.675,-9.668 10.465,-18.061 17.371,-25.179c6.906,-7.118 13.439,-12.43 19.601,-15.936c6.162,-3.506 13.068,-6.268 20.718,-8.287c7.649,-2.019 13.811,-3.24 18.486,-3.665c4.674,-0.425 9.774,-0.638 15.298,-0.638c22.736,0 40.372,5.047 52.909,15.14c12.536,10.093 18.805,22.895 18.805,38.406c-0,10.412 -3.347,19.336 -10.04,26.773c-6.694,7.437 -15.671,11.155 -26.933,11.155c-11.049,0 -19.814,-3.718 -26.294,-11.155c-6.481,-7.437 -9.722,-15.936 -9.722,-25.498c0,-5.95 1.222,-11.952 3.666,-18.008c2.443,-6.056 5.79,-10.465 10.04,-13.227l-0,-1.275c-0.638,-2.125 -2.497,-3.984 -5.578,-5.578c-3.081,-1.593 -6.64,-2.39 -10.677,-2.39c-5.95,-0 -10.784,1.593 -14.502,4.781c-3.719,3.187 -6.375,7.755 -7.968,13.705c-1.594,5.949 -2.603,11.368 -3.028,16.255c-0.425,4.887 -0.638,10.943 -0.638,18.167l0,74.263l76.813,0l-0,13.705l-76.813,3.188l0,286.852l45.578,3.187l-0,13.068l-156.494,0l-0,-13.068l32.51,-3.187l-0,-286.852l-46.853,-3.188Z"/>

			<path class="logo-Y" d="M1317.35,1079.87c0,-12.537 3.772,-23.055 11.315,-31.554c7.543,-8.499 17.052,-12.749 28.526,-12.749c12.324,-0 21.62,3.825 27.888,11.474c6.269,7.649 9.403,17.105 9.403,28.367c-0,4.249 -1.328,9.349 -3.984,15.298c-2.656,5.95 -6.109,10.412 -10.359,13.387l0,1.275c7.437,-0.213 14.449,-2.816 21.036,-7.809c6.587,-4.993 12.536,-12.165 17.849,-21.514c5.312,-9.349 9.349,-17.211 12.111,-23.586c2.762,-6.374 5.95,-14.342 9.562,-23.904l14.342,-48.446l-135.458,-314.263l-31.553,-3.506l-0,-13.068l150.756,0l0,13.068l-34.422,3.506l82.869,207.809l62.47,-207.809l-35.06,-3.506l0,-13.068l86.693,0l0,13.068l-33.147,3.506l-105.817,358.247c-7.437,21.673 -15.086,39.734 -22.948,54.183c-7.862,14.449 -15.777,25.02 -23.745,31.713c-7.968,6.693 -15.352,11.209 -22.151,13.546c-6.8,2.337 -14.343,3.506 -22.63,3.506c-15.936,0 -28.845,-4.462 -38.725,-13.386c-9.881,-8.925 -14.821,-20.186 -14.821,-33.785Z"/>
		</g>
	</g>
</svg>