<?xml version="1.0" encoding="UTF-8" standalone="no"?><!DOCTYPE svg PUBLIC "-//W3C//DTD SVG 1.1//EN" "http://www.w3.org/Graphics/SVG/1.1/DTD/svg11.dtd"><svg width="100%" height="100%" viewBox="0 0 1675 1785" version="1.1" xmlns="http://www.w3.org/2000/svg" xmlns:xlink="http://www.w3.org/1999/xlink" xml:space="preserve" xmlns:serif="http://www.serif.com/" style="fill-rule:evenodd;clip-rule:evenodd;stroke-linecap:round;stroke-linejoin:round;stroke-miterlimit:1.5;"><g><path d="M340.475,93.956c388.327,-242.767 609.469,1.511 1023.41,541.644c470.086,613.402 357.045,547.967 -9.034,820.567c-366.078,272.601 -591.474,590.357 -1053.14,-29.618c-461.665,-619.975 -349.145,-1090.09 38.767,-1332.59Z" style="fill:#d9f2ea;"/><g><path d="M1130,887.016c0,-84.101 -57.704,-152.379 -128.778,-152.379l-713.583,-0c-71.075,-0 -128.778,68.278 -128.778,152.379l-0,304.757c-0,84.1 57.703,152.379 128.778,152.379l-93.215,199.719l425.728,-199.719l381.07,-0c71.074,-0 128.778,-68.279 128.778,-152.379l0,-304.757Z" style="fill:#082b1f;stroke:#d9f2ea;stroke-width:29.97px;"/><path d="M544.581,358.142c-0,-94.45 57.704,-171.131 128.778,-171.131l713.583,0c71.075,0 128.778,76.681 128.778,171.131l0,342.263c0,94.45 -57.703,171.132 -128.778,171.132l93.215,224.297l-425.728,-224.297l-381.07,-0c-71.074,-0 -128.778,-76.682 -128.778,-171.132l-0,-342.263Z" style="fill:#082b1f;stroke:#d9f2ea;stroke-width:32.17px;"/></g></g></svg>