<?xml version="1.0" encoding="UTF-8" standalone="no"?><!DOCTYPE svg PUBLIC "-//W3C//DTD SVG 1.1//EN" "http://www.w3.org/Graphics/SVG/1.1/DTD/svg11.dtd"><svg width="100%" height="100%" viewBox="0 0 2500 2030" version="1.1" xmlns="http://www.w3.org/2000/svg" xmlns:xlink="http://www.w3.org/1999/xlink" xml:space="preserve" xmlns:serif="http://www.serif.com/" style="fill-rule:evenodd;clip-rule:evenodd;stroke-linecap:round;stroke-linejoin:round;stroke-miterlimit:1.5;"><rect id="message" x="-0" y="0" width="2500" height="2029.17" style="fill:none;"/><g id="message1" serif:id="message"><g id="messages"><path d="M724.295,127.763c388.327,-242.768 609.469,1.51 1023.4,541.644c470.087,613.402 357.045,547.966 -9.033,820.567c-366.078,272.601 -591.474,590.356 -1053.14,-29.618c-461.665,-619.975 -349.144,-1090.09 38.768,-1332.59Z" style="fill:#d9f2ea;"/><path d="M1413.97,920.565c0,-83.958 -57.703,-152.122 -128.778,-152.122l-713.583,0c-71.074,0 -128.778,68.164 -128.778,152.122l-0,304.242c-0,83.958 120.204,152.122 191.278,152.122c0,-0 -26.85,101.922 -45.353,172.158c-2.61,9.907 1.269,20.388 9.699,26.209c8.431,5.822 19.606,5.736 27.946,-0.215c94.409,-67.36 277.721,-198.152 277.721,-198.152l381.07,-0c71.075,-0 128.778,-68.164 128.778,-152.122l0,-304.242Z" style="fill:#082b1f;stroke:#d9f2ea;stroke-width:62.5px;"/><path d="M928.401,391.949c-0,-94.45 57.703,-171.132 128.778,-171.132l713.582,0c71.075,0 128.779,76.682 128.779,171.132l-0,342.263c-0,94.45 -57.704,171.131 -128.779,171.131c0,0 22.622,87.457 37.893,146.501c2.405,9.295 -0.884,19.133 -8.393,25.115c-7.509,5.981 -17.834,6.985 -26.355,2.563c-103.228,-53.566 -335.657,-174.179 -335.657,-174.179l-381.07,0c-71.075,0 -128.778,-76.681 -128.778,-171.131l-0,-342.263Z" style="fill:#082b1f;stroke:#d9f2ea;stroke-width:62.5px;"/></g></g></svg>