<?xml version="1.0" encoding="UTF-8" standalone="no"?><!DOCTYPE svg PUBLIC "-//W3C//DTD SVG 1.1//EN" "http://www.w3.org/Graphics/SVG/1.1/DTD/svg11.dtd"><svg width="100%" height="100%" viewBox="0 0 17365 11644" version="1.1" xmlns="http://www.w3.org/2000/svg" xmlns:xlink="http://www.w3.org/1999/xlink" xml:space="preserve" xmlns:serif="http://www.serif.com/" style="fill-rule:evenodd;clip-rule:evenodd;stroke-linejoin:round;stroke-miterlimit:2;"><path d="M13988.2,104.167c0,-57.491 -46.675,-104.167 -104.166,-104.167l-10208.3,-0c-57.491,-0 -104.166,46.676 -104.166,104.167l-0,10208.3c-0,57.491 46.675,104.167 104.166,104.167l10208.3,-0c57.491,-0 104.166,-46.676 104.166,-104.167l0,-10208.3Z" style="fill:#ccd5ff;"/><path d="M17364.6,5455.87c-0,-34.495 -28.005,-62.5 -62.5,-62.5l-6125,-0c-34.495,-0 -62.5,28.005 -62.5,62.5l-0,6125c-0,34.495 28.005,62.5 62.5,62.5l6125,-0c34.495,-0 62.5,-28.005 62.5,-62.5l-0,-6125Z" style="fill:#d9f2ea;"/><path d="M6250,2330.87c0,-34.495 -28.005,-62.5 -62.5,-62.5l-6125,-0c-34.495,-0 -62.5,28.005 -62.5,62.5l-0,6125c-0,34.495 28.005,62.5 62.5,62.5l6125,-0c34.495,-0 62.5,-28.005 62.5,-62.5l0,-6125Z" style="fill:#fec;"/></svg>