<svg class="cloud-main" width="100%" height="100%" viewBox="0 0 500 500" version="1.1" xmlns="http://www.w3.org/2000/svg">
    <g transform="matrix(1,0,0,1,0,-726.299)">
        <g transform="matrix(0.195312,0,0,0.3125,0,726.299)">
            <rect class="cloud-vector" x="0" y="0" width="2560" height="1600" />
            <g transform="matrix(8.79725,0,0,5.67977,-914.914,-4835.18)">
                <path d="M218.752,881.064C218.752,864.636 232.53,851.299 249.5,851.299C266.47,851.299 280.248,864.636 280.248,881.064C288.733,866.837 307.553,861.955 322.25,870.169C336.947,878.383 341.99,896.602 333.504,910.829C348.201,902.615 367.022,907.497 375.507,921.724C383.992,935.951 378.949,954.17 364.252,962.384C381.222,962.384 395,975.721 395,992.149C395,1008.58 381.222,1021.92 364.252,1021.92C378.949,1030.13 383.992,1048.35 375.507,1062.58C367.022,1076.8 348.201,1081.68 333.504,1073.47C341.99,1087.7 336.947,1105.92 322.25,1114.13C307.553,1122.34 288.733,1117.46 280.248,1103.24C280.248,1119.66 266.47,1133 249.5,1133C232.53,1133 218.752,1119.66 218.752,1103.24C210.267,1117.46 191.447,1122.34 176.75,1114.13C162.053,1105.92 157.01,1087.7 165.496,1073.47C150.799,1081.68 131.978,1076.8 123.493,1062.58C115.008,1048.35 120.051,1030.13 134.748,1021.92C117.778,1021.92 104,1008.58 104,992.149C104,975.721 117.778,962.384 134.748,962.384C120.051,954.17 115.008,935.951 123.493,921.724C131.978,907.497 150.799,902.615 165.496,910.829C157.01,896.602 162.053,878.383 176.75,870.169C191.447,861.955 210.267,866.837 218.752,881.064Z" />
            </g>
        </g>
    </g>
</svg>